ArchivoNarrow-Bold.ufo
<glyph name="ampersand" format="2">
  <advance width="592"/>
  <unicode hex="0026"/>
  <outline>
    <contour>
      <point x="440" y="0" type="line"/>
      <point x="573" y="0" type="line"/>
      <point x="279" y="409" type="line"/>
      <point x="245" y="436"/>
      <point x="228" y="490"/>
      <point x="228" y="530" type="curve" smooth="yes"/>
      <point x="228" y="567"/>
      <point x="245" y="597"/>
      <point x="283" y="597" type="curve" smooth="yes"/>
      <point x="315" y="597"/>
      <point x="329" y="575"/>
      <point x="329" y="547" type="curve" smooth="yes"/>
      <point x="329" y="499"/>
      <point x="291" y="435"/>
      <point x="237" y="426" type="curve"/>
      <point x="273" y="333" type="line"/>
      <point x="383" y="372"/>
      <point x="442" y="470"/>
      <point x="442" y="555" type="curve" smooth="yes"/>
      <point x="442" y="632"/>
      <point x="393" y="698"/>
      <point x="289" y="698" type="curve" smooth="yes"/>
      <point x="175" y="698"/>
      <point x="112" y="620"/>
      <point x="112" y="527" type="curve" smooth="yes"/>
      <point x="112" y="476"/>
      <point x="131" y="421"/>
      <point x="167" y="374" type="curve"/>
    </contour>
    <contour>
      <point x="246" y="-13" type="curve" smooth="yes"/>
      <point x="387" y="-13"/>
      <point x="538" y="104"/>
      <point x="538" y="358" type="curve"/>
      <point x="428" y="358" type="line"/>
      <point x="428" y="170"/>
      <point x="346" y="89"/>
      <point x="253" y="89" type="curve" smooth="yes"/>
      <point x="189" y="89"/>
      <point x="160" y="139"/>
      <point x="160" y="193" type="curve" smooth="yes"/>
      <point x="160" y="249"/>
      <point x="191" y="307"/>
      <point x="244" y="322" type="curve"/>
      <point x="204" y="416" type="line"/>
      <point x="95" y="372"/>
      <point x="40" y="273"/>
      <point x="40" y="181" type="curve" smooth="yes"/>
      <point x="40" y="80"/>
      <point x="107" y="-13"/>
    </contour>
  </outline>
</glyph>
<glyph name="two" format="2">
  <advance width="456"/>
  <unicode hex="0032"/>
  <outline>
    <contour>
      <point x="33" y="0" type="line"/>
      <point x="426" y="0" type="line"/>
      <point x="426" y="112" type="line"/>
      <point x="183" y="112" type="line"/>
      <point x="188" y="122"/>
      <point x="195" y="132"/>
      <point x="204" y="144" type="curve" smooth="yes"/>
      <point x="269" y="229"/>
      <point x="423" y="360"/>
      <point x="423" y="520" type="curve" smooth="yes"/>
      <point x="423" y="646"/>
      <point x="341" y="698"/>
      <point x="239" y="698" type="curve" smooth="yes"/>
      <point x="132" y="698"/>
      <point x="39" y="637"/>
      <point x="39" y="490" type="curve" smooth="yes"/>
      <point x="39" y="466"/>
      <point x="42" y="450"/>
      <point x="42" y="450" type="curve"/>
      <point x="165" y="450" type="line"/>
      <point x="165" y="491" type="line" smooth="yes"/>
      <point x="165" y="547"/>
      <point x="184" y="595"/>
      <point x="234" y="595" type="curve" smooth="yes"/>
      <point x="283" y="595"/>
      <point x="297" y="553"/>
      <point x="297" y="521" type="curve" smooth="yes"/>
      <point x="297" y="399"/>
      <point x="186" y="316"/>
      <point x="107" y="215" type="curve" smooth="yes"/>
      <point x="65" y="160"/>
      <point x="33" y="99"/>
      <point x="33" y="24" type="curve" smooth="yes"/>
    </contour>
  </outline>
</glyph>
<glyph name="E" format="2">
  <advance width="547"/>
  <unicode hex="0045"/>
  <anchor x="293" y="0" name="bottom"/>
  <anchor x="503" y="0" name="ogonek"/>
  <anchor x="279" y="686" name="top"/>
  <outline>
    <contour>
      <point x="60" y="0" type="line"/>
      <point x="503" y="0" type="line"/>
      <point x="503" y="114" type="line"/>
      <point x="188" y="114" type="line"/>
      <point x="188" y="294" type="line"/>
      <point x="453" y="294" type="line"/>
      <point x="453" y="408" type="line"/>
      <point x="188" y="408" type="line"/>
      <point x="188" y="572" type="line"/>
      <point x="497" y="572" type="line"/>
      <point x="497" y="686" type="line"/>
      <point x="60" y="686" type="line"/>
    </contour>
  </outline>
</glyph>
<glyph name="F" format="2">
  <advance width="501"/>
  <unicode hex="0046"/>
  <outline>
    <contour>
      <point x="60" y="0" type="line"/>
      <point x="188" y="0" type="line"/>
      <point x="188" y="285" type="line"/>
      <point x="423" y="285" type="line"/>
      <point x="423" y="399" type="line"/>
      <point x="188" y="399" type="line"/>
      <point x="188" y="572" type="line"/>
      <point x="463" y="572" type="line"/>
      <point x="463" y="686" type="line"/>
      <point x="60" y="686" type="line"/>
    </contour>
  </outline>
</glyph>
<glyph name="H" format="2">
  <advance width="592"/>
  <unicode hex="0048"/>
  <anchor x="296" y="0" name="bottom"/>
  <anchor x="296" y="540" name="center"/>
  <anchor x="296" y="686" name="top"/>
  <anchor x="60" y="686" name="topleft"/>
  <outline>
    <contour>
      <point x="60" y="0" type="line"/>
      <point x="188" y="0" type="line"/>
      <point x="188" y="294" type="line"/>
      <point x="404" y="294" type="line"/>
      <point x="404" y="0" type="line"/>
      <point x="532" y="0" type="line"/>
      <point x="532" y="686" type="line"/>
      <point x="404" y="686" type="line"/>
      <point x="404" y="408" type="line"/>
      <point x="188" y="408" type="line"/>
      <point x="188" y="686" type="line"/>
      <point x="60" y="686" type="line"/>
    </contour>
  </outline>
</glyph>
<glyph name="I" format="2">
  <advance width="228"/>
  <unicode hex="0049"/>
  <anchor x="114" y="0" name="bottom"/>
  <anchor x="158" y="0" name="ogonek"/>
  <anchor x="114" y="686" name="top"/>
  <anchor x="1" y="686" name="topleft"/>
  <outline>
    <contour>
      <point x="50" y="0" type="line"/>
      <point x="178" y="0" type="line"/>
      <point x="178" y="686" type="line"/>
      <point x="50" y="686" type="line"/>
    </contour>
  </outline>
</glyph>
<glyph name="J" format="2">
  <advance width="456"/>
  <unicode hex="004A"/>
  <anchor x="210" y="0" name="bottom"/>
  <anchor x="334" y="686" name="top"/>
  <outline>
    <contour>
      <point x="203" y="-12" type="curve" smooth="yes"/>
      <point x="327" y="-12"/>
      <point x="396" y="49"/>
      <point x="396" y="163" type="curve" smooth="yes"/>
      <point x="396" y="686" type="line"/>
      <point x="268" y="686" type="line"/>
      <point x="268" y="173" type="line" smooth="yes"/>
      <point x="268" y="125"/>
      <point x="246" y="98"/>
      <point x="203" y="98" type="curve" smooth="yes"/>
      <point x="159" y="98"/>
      <point x="136" y="125"/>
      <point x="136" y="173" type="curve" smooth="yes"/>
      <point x="136" y="216" type="line"/>
      <point x="9" y="216" type="line"/>
      <point x="9" y="163" type="line" smooth="yes"/>
      <point x="9" y="49"/>
      <point x="79" y="-12"/>
    </contour>
  </outline>
</glyph>
<glyph name="L" format="2">
  <advance width="501"/>
  <unicode hex="004C"/>
  <anchor x="250" y="0" name="bottom"/>
  <anchor x="375" y="360" name="center"/>
  <anchor x="123" y="686" name="top"/>
  <anchor x="289" y="526" name="topright"/>
  <outline>
    <contour>
      <point x="60" y="0" type="line"/>
      <point x="478" y="0" type="line"/>
      <point x="478" y="120" type="line"/>
      <point x="188" y="120" type="line"/>
      <point x="188" y="686" type="line"/>
      <point x="60" y="686" type="line"/>
    </contour>
  </outline>
</glyph>
<glyph name="M" format="2">
  <advance width="683"/>
  <unicode hex="004D"/>
  <outline>
    <contour>
      <point x="53" y="0" type="line"/>
      <point x="162" y="0" type="line"/>
      <point x="162" y="437" type="line" smooth="yes"/>
      <point x="162" y="464"/>
      <point x="157" y="547"/>
      <point x="157" y="547" type="curve"/>
      <point x="161" y="547" type="line"/>
      <point x="169" y="512"/>
      <point x="177" y="476"/>
      <point x="185" y="441" type="curve"/>
      <point x="282" y="0" type="line"/>
      <point x="393" y="0" type="line"/>
      <point x="489" y="439" type="line"/>
      <point x="497" y="475"/>
      <point x="505" y="511"/>
      <point x="513" y="547" type="curve"/>
      <point x="517" y="547" type="line"/>
      <point x="517" y="547"/>
      <point x="512" y="468"/>
      <point x="512" y="437" type="curve" smooth="yes"/>
      <point x="512" y="0" type="line"/>
      <point x="630" y="0" type="line"/>
      <point x="630" y="686" type="line"/>
      <point x="456" y="686" type="line"/>
      <point x="372" y="308" type="line" smooth="yes"/>
      <point x="363" y="268"/>
      <point x="349" y="153"/>
      <point x="349" y="153" type="curve"/>
      <point x="345" y="153" type="line"/>
      <point x="345" y="153"/>
      <point x="328" y="263"/>
      <point x="318" y="308" type="curve" smooth="yes"/>
      <point x="233" y="686" type="line"/>
      <point x="53" y="686" type="line"/>
    </contour>
  </outline>
</glyph>
<glyph name="N" format="2">
  <advance width="592"/>
  <unicode hex="004E"/>
  <anchor x="296" y="0" name="bottom"/>
  <anchor x="296" y="686" name="top"/>
  <outline>
    <contour>
      <point x="60" y="0" type="line"/>
      <point x="173" y="0" type="line"/>
      <point x="173" y="382" type="line" smooth="yes"/>
      <point x="173" y="400"/>
      <point x="171" y="439"/>
      <point x="171" y="439" type="curve"/>
      <point x="175" y="442" type="line"/>
      <point x="175" y="442"/>
      <point x="198" y="392"/>
      <point x="206" y="378" type="curve" smooth="yes"/>
      <point x="418" y="0" type="line"/>
      <point x="532" y="0" type="line"/>
      <point x="532" y="686" type="line"/>
      <point x="418" y="686" type="line"/>
      <point x="418" y="304" type="line" smooth="yes"/>
      <point x="418" y="293"/>
      <point x="419" y="247"/>
      <point x="419" y="247" type="curve"/>
      <point x="416" y="244" type="line"/>
      <point x="416" y="244"/>
      <point x="396" y="291"/>
      <point x="385" y="308" type="curve"/>
      <point x="173" y="686" type="line"/>
      <point x="60" y="686" type="line"/>
    </contour>
  </outline>
</glyph>
<glyph name="O" format="2">
  <advance width="638"/>
  <unicode hex="004F"/>
  <anchor x="319" y="0" name="bottom"/>
  <anchor x="319" y="343" name="center"/>
  <anchor x="364" y="0" name="ogonek"/>
  <anchor x="319" y="686" name="top"/>
  <anchor x="20" y="686" name="topleft"/>
  <anchor x="408" y="686" name="topright"/>
  <outline>
    <contour>
      <point x="319" y="-12" type="curve" smooth="yes"/>
      <point x="496" y="-12"/>
      <point x="604" y="101"/>
      <point x="604" y="343" type="curve" smooth="yes"/>
      <point x="604" y="585"/>
      <point x="496" y="698"/>
      <point x="319" y="698" type="curve" smooth="yes"/>
      <point x="142" y="698"/>
      <point x="34" y="585"/>
      <point x="34" y="343" type="curve" smooth="yes"/>
      <point x="34" y="101"/>
      <point x="142" y="-12"/>
    </contour>
    <contour>
      <point x="319" y="98" type="curve" smooth="yes"/>
      <point x="217" y="98"/>
      <point x="166" y="181"/>
      <point x="166" y="318" type="curve" smooth="yes"/>
      <point x="166" y="368" type="line"/>
      <point x="166" y="505"/>
      <point x="217" y="588"/>
      <point x="319" y="588" type="curve" smooth="yes"/>
      <point x="421" y="588"/>
      <point x="472" y="505"/>
      <point x="472" y="368" type="curve" smooth="yes"/>
      <point x="472" y="318" type="line" smooth="yes"/>
      <point x="472" y="181"/>
      <point x="421" y="98"/>
    </contour>
  </outline>
</glyph>
<glyph name="T" format="2">
  <advance width="501"/>
  <unicode hex="0054"/>
  <anchor x="252" y="0" name="bottom"/>
  <anchor x="250" y="343" name="center"/>
  <anchor x="250" y="686" name="top"/>
  <outline>
    <contour>
      <point x="187" y="0" type="line"/>
      <point x="315" y="0" type="line"/>
      <point x="315" y="572" type="line"/>
      <point x="485" y="572" type="line"/>
      <point x="485" y="686" type="line"/>
      <point x="17" y="686" type="line"/>
      <point x="17" y="572" type="line"/>
      <point x="187" y="572" type="line"/>
    </contour>
  </outline>
</glyph>
<glyph name="U" format="2">
  <advance width="592"/>
  <unicode hex="0055"/>
  <anchor x="296" y="0" name="bottom"/>
  <anchor x="405" y="5" name="ogonek"/>
  <anchor x="296" y="686" name="top"/>
  <anchor x="422" y="686" name="topright"/>
  <outline>
    <contour>
      <point x="296" y="-12" type="curve" smooth="yes"/>
      <point x="443" y="-12"/>
      <point x="532" y="66"/>
      <point x="532" y="215" type="curve" smooth="yes"/>
      <point x="532" y="686" type="line"/>
      <point x="404" y="686" type="line"/>
      <point x="404" y="219" type="line" smooth="yes"/>
      <point x="404" y="140"/>
      <point x="364" y="98"/>
      <point x="296" y="98" type="curve" smooth="yes"/>
      <point x="228" y="98"/>
      <point x="189" y="140"/>
      <point x="189" y="219" type="curve" smooth="yes"/>
      <point x="189" y="686" type="line"/>
      <point x="61" y="686" type="line"/>
      <point x="61" y="215" type="line"/>
      <point x="61" y="66"/>
      <point x="149" y="-12"/>
    </contour>
  </outline>
</glyph>
<glyph name="Y" format="2">
  <advance width="547"/>
  <unicode hex="0059"/>
  <anchor x="274" y="0" name="bottom"/>
  <anchor x="273" y="686" name="top"/>
  <anchor x="20" y="686" name="topleft"/>
  <outline>
    <contour>
      <point x="210" y="0" type="line"/>
      <point x="338" y="0" type="line"/>
      <point x="338" y="259" type="line"/>
      <point x="547" y="686" type="line"/>
      <point x="418" y="686" type="line"/>
      <point x="279" y="385" type="line"/>
      <point x="275" y="385" type="line"/>
      <point x="135" y="686" type="line"/>
      <point x="0" y="686" type="line"/>
      <point x="210" y="259" type="line"/>
    </contour>
  </outline>
</glyph>
<glyph name="grave" format="2">
  <advance width="273"/>
  <unicode hex="0060"/>
  <outline>
    <contour>
      <point x="129" y="591" type="line"/>
      <point x="228" y="591" type="line"/>
      <point x="142" y="723" type="line"/>
      <point x="22" y="723" type="line"/>
      <point x="21" y="720" type="line"/>
    </contour>
  </outline>
</glyph>
<glyph name="k" format="2">
  <advance width="456"/>
  <unicode hex="006B"/>
  <anchor x="228" y="0" name="bottom"/>
  <outline>
    <contour>
      <point x="54" y="0" type="line"/>
      <point x="174" y="0" type="line"/>
      <point x="174" y="164" type="line"/>
      <point x="218" y="218" type="line"/>
      <point x="324" y="0" type="line"/>
      <point x="457" y="0" type="line"/>
      <point x="293" y="312" type="line"/>
      <point x="449" y="526" type="line"/>
      <point x="321" y="526" type="line"/>
      <point x="174" y="317" type="line"/>
      <point x="174" y="723" type="line"/>
      <point x="54" y="723" type="line"/>
    </contour>
  </outline>
</glyph>
<glyph name="l" format="2">
  <advance width="228"/>
  <unicode hex="006C"/>
  <anchor x="114" y="0" name="bottom"/>
  <anchor x="274" y="362" name="center"/>
  <anchor x="114" y="700" name="top"/>
  <anchor x="204" y="526" name="topright"/>
  <outline>
    <contour>
      <point x="54" y="0" type="line"/>
      <point x="174" y="0" type="line"/>
      <point x="174" y="723" type="line"/>
      <point x="54" y="723" type="line"/>
    </contour>
  </outline>
</glyph>
<glyph name="r" format="2">
  <advance width="319"/>
  <unicode hex="0072"/>
  <anchor x="121" y="0" name="bottom"/>
  <anchor x="180" y="526" name="top"/>
  <outline>
    <contour>
      <point x="55" y="0" type="line"/>
      <point x="175" y="0" type="line"/>
      <point x="175" y="293" type="line" smooth="yes"/>
      <point x="175" y="386"/>
      <point x="221" y="414"/>
      <point x="273" y="414" type="curve" smooth="yes"/>
      <point x="316" y="414" type="line"/>
      <point x="316" y="530" type="line"/>
      <point x="316" y="530"/>
      <point x="297" y="538"/>
      <point x="266" y="538" type="curve" smooth="yes"/>
      <point x="213" y="538"/>
      <point x="189" y="493"/>
      <point x="175" y="449" type="curve"/>
      <point x="169" y="449" type="line"/>
      <point x="155" y="526" type="line"/>
      <point x="55" y="526" type="line"/>
    </contour>
  </outline>
</glyph>
<glyph name="x" format="2">
  <advance width="456"/>
  <unicode hex="0078"/>
  <outline>
    <contour>
      <point x="5" y="0" type="line"/>
      <point x="133" y="0" type="line"/>
      <point x="222" y="174" type="line"/>
      <point x="227" y="174" type="line"/>
      <point x="316" y="0" type="line"/>
      <point x="451" y="0" type="line"/>
      <point x="301" y="275" type="line"/>
      <point x="443" y="526" type="line"/>
      <point x="314" y="526" type="line"/>
      <point x="236" y="373" type="line"/>
      <point x="231" y="373" type="line"/>
      <point x="153" y="526" type="line"/>
      <point x="17" y="526" type="line"/>
      <point x="157" y="272" type="line"/>
    </contour>
  </outline>
</glyph>
<glyph name="z" format="2">
  <advance width="410"/>
  <unicode hex="007A"/>
  <anchor x="205" y="526" name="top"/>
  <outline>
    <contour>
      <point x="18" y="0" type="line"/>
      <point x="392" y="0" type="line"/>
      <point x="392" y="101" type="line"/>
      <point x="180" y="101" type="line"/>
      <point x="385" y="476" type="line"/>
      <point x="385" y="526" type="line"/>
      <point x="30" y="526" type="line"/>
      <point x="30" y="425" type="line"/>
      <point x="222" y="425" type="line"/>
      <point x="18" y="51" type="line"/>
    </contour>
  </outline>
</glyph>
<glyph name="dieresis" format="2">
  <advance width="273"/>
  <unicode hex="00A8"/>
  <outline>
    <contour>
      <point x="174" y="614" type="line"/>
      <point x="274" y="614" type="line"/>
      <point x="274" y="723" type="line"/>
      <point x="174" y="723" type="line"/>
    </contour>
    <contour>
      <point x="-1" y="614" type="line"/>
      <point x="99" y="614" type="line"/>
      <point x="99" y="723" type="line"/>
      <point x="-1" y="723" type="line"/>
    </contour>
  </outline>
</glyph>
<glyph name="registered" format="2">
  <advance width="604"/>
  <unicode hex="00AE"/>
  <outline>
    <contour>
      <point x="302" y="-12" type="curve" smooth="yes"/>
      <point x="480" y="-12"/>
      <point x="588" y="127"/>
      <point x="588" y="343" type="curve" smooth="yes"/>
      <point x="588" y="559"/>
      <point x="480" y="698"/>
      <point x="302" y="698" type="curve" smooth="yes"/>
      <point x="124" y="698"/>
      <point x="16" y="559"/>
      <point x="16" y="343" type="curve" smooth="yes"/>
      <point x="16" y="127"/>
      <point x="124" y="-12"/>
    </contour>
    <contour>
      <point x="302" y="43" type="curve" smooth="yes"/>
      <point x="159" y="43"/>
      <point x="72" y="160"/>
      <point x="72" y="343" type="curve" smooth="yes"/>
      <point x="72" y="526"/>
      <point x="159" y="643"/>
      <point x="302" y="643" type="curve" smooth="yes"/>
      <point x="445" y="643"/>
      <point x="532" y="526"/>
      <point x="532" y="343" type="curve" smooth="yes"/>
      <point x="532" y="160"/>
      <point x="445" y="43"/>
    </contour>
    <contour>
      <point x="173" y="140" type="line"/>
      <point x="259" y="140" type="line"/>
      <point x="259" y="292" type="line"/>
      <point x="323" y="292" type="line"/>
      <point x="384" y="140" type="line"/>
      <point x="470" y="140" type="line"/>
      <point x="396" y="318" type="line"/>
      <point x="424" y="337"/>
      <point x="444" y="371"/>
      <point x="444" y="421" type="curve" smooth="yes"/>
      <point x="444" y="497"/>
      <point x="396" y="546"/>
      <point x="331" y="546" type="curve" smooth="yes"/>
      <point x="173" y="546" type="line"/>
    </contour>
    <contour>
      <point x="259" y="362" type="line"/>
      <point x="259" y="468" type="line"/>
      <point x="303" y="468" type="line" smooth="yes"/>
      <point x="339" y="468"/>
      <point x="356" y="452"/>
      <point x="356" y="418" type="curve" smooth="yes"/>
      <point x="356" y="380"/>
      <point x="339" y="362"/>
      <point x="303" y="362" type="curve" smooth="yes"/>
    </contour>
  </outline>
</glyph>
<glyph name="macron" format="2">
  <advance width="273"/>
  <unicode hex="00AF"/>
  <outline>
    <contour>
      <point x="9" y="600" type="line"/>
      <point x="264" y="600" type="line"/>
      <point x="264" y="687" type="line"/>
      <point x="9" y="687" type="line"/>
    </contour>
  </outline>
</glyph>
<glyph name="twosuperior" format="2">
  <advance width="273"/>
  <unicode hex="00B2"/>
  <outline>
    <contour>
      <point x="24" y="434" type="line"/>
      <point x="248" y="434" type="line"/>
      <point x="248" y="499" type="line"/>
      <point x="123" y="499" type="line"/>
      <point x="129" y="517"/>
      <point x="146" y="535"/>
      <point x="166" y="557" type="curve" smooth="yes"/>
      <point x="201" y="593"/>
      <point x="243" y="637"/>
      <point x="243" y="699" type="curve" smooth="yes"/>
      <point x="243" y="758"/>
      <point x="201" y="798"/>
      <point x="135" y="798" type="curve" smooth="yes"/>
      <point x="68" y="798"/>
      <point x="25" y="754"/>
      <point x="25" y="687" type="curve" smooth="yes"/>
      <point x="25" y="675"/>
      <point x="28" y="663"/>
      <point x="28" y="663" type="curve"/>
      <point x="101" y="663" type="line"/>
      <point x="101" y="688" type="line" smooth="yes"/>
      <point x="101" y="713"/>
      <point x="112" y="734"/>
      <point x="136" y="734" type="curve" smooth="yes"/>
      <point x="161" y="734"/>
      <point x="168" y="718"/>
      <point x="168" y="692" type="curve" smooth="yes"/>
      <point x="168" y="660"/>
      <point x="139" y="628"/>
      <point x="106" y="594" type="curve" smooth="yes"/>
      <point x="67" y="552"/>
      <point x="24" y="506"/>
      <point x="24" y="449" type="curve" smooth="yes"/>
    </contour>
  </outline>
</glyph>
<glyph name="threesuperior" format="2">
  <advance width="273"/>
  <unicode hex="00B3"/>
  <outline>
    <contour>
      <point x="141" y="428" type="curve" smooth="yes"/>
      <point x="210" y="428"/>
      <point x="256" y="470"/>
      <point x="256" y="533" type="curve" smooth="yes"/>
      <point x="256" y="574"/>
      <point x="236" y="605"/>
      <point x="201" y="621" type="curve"/>
      <point x="232" y="640"/>
      <point x="250" y="666"/>
      <point x="250" y="703" type="curve" smooth="yes"/>
      <point x="250" y="767"/>
      <point x="206" y="798"/>
      <point x="139" y="798" type="curve" smooth="yes"/>
      <point x="73" y="798"/>
      <point x="29" y="759"/>
      <point x="29" y="702" type="curve" smooth="yes"/>
      <point x="29" y="677" type="line"/>
      <point x="103" y="677" type="line"/>
      <point x="103" y="697" type="line" smooth="yes"/>
      <point x="103" y="720"/>
      <point x="118" y="736"/>
      <point x="140" y="736" type="curve" smooth="yes"/>
      <point x="158" y="736"/>
      <point x="176" y="727"/>
      <point x="176" y="699" type="curve" smooth="yes"/>
      <point x="176" y="670"/>
      <point x="160" y="650"/>
      <point x="137" y="650" type="curve" smooth="yes"/>
      <point x="106" y="650" type="line"/>
      <point x="106" y="585" type="line"/>
      <point x="136" y="585" type="line" smooth="yes"/>
      <point x="164" y="585"/>
      <point x="182" y="566"/>
      <point x="182" y="538" type="curve" smooth="yes"/>
      <point x="182" y="510"/>
      <point x="164" y="491"/>
      <point x="137" y="491" type="curve" smooth="yes"/>
      <point x="113" y="491"/>
      <point x="97" y="508"/>
      <point x="97" y="534" type="curve" smooth="yes"/>
      <point x="97" y="547" type="line"/>
      <point x="22" y="547" type="line"/>
      <point x="22" y="536" type="line" smooth="yes"/>
      <point x="22" y="467"/>
      <point x="64" y="428"/>
    </contour>
  </outline>
</glyph>
<glyph name="acute" format="2">
  <advance width="273"/>
  <unicode hex="00B4"/>
  <outline>
    <contour>
      <point x="48" y="591" type="line"/>
      <point x="147" y="591" type="line"/>
      <point x="255" y="720" type="line"/>
      <point x="254" y="723" type="line"/>
      <point x="134" y="723" type="line"/>
    </contour>
  </outline>
</glyph>
<glyph name="onesuperior" format="2">
  <advance width="273"/>
  <unicode hex="00B9"/>
  <outline>
    <contour>
      <point x="20" y="433" type="line"/>
      <point x="235" y="433" type="line"/>
      <point x="235" y="502" type="line"/>
      <point x="170" y="502" type="line"/>
      <point x="170" y="786" type="line"/>
      <point x="126" y="786" type="line"/>
      <point x="96" y="766"/>
      <point x="49" y="750"/>
      <point x="20" y="746" type="curve"/>
      <point x="20" y="697" type="line"/>
      <point x="94" y="697" type="line"/>
      <point x="94" y="502" type="line"/>
      <point x="20" y="502" type="line"/>
    </contour>
  </outline>
</glyph>
<glyph name="AE" format="2">
  <advance width="820"/>
  <unicode hex="00C6"/>
  <anchor x="500" y="686" name="top"/>
  <outline>
    <contour>
      <point x="-8" y="0" type="line"/>
      <point x="111" y="0" type="line"/>
      <point x="161" y="135" type="line"/>
      <point x="414" y="135" type="line"/>
      <point x="447" y="0" type="line"/>
      <point x="777" y="0" type="line"/>
      <point x="777" y="114" type="line"/>
      <point x="550" y="114" type="line"/>
      <point x="506" y="294" type="line"/>
      <point x="727" y="294" type="line"/>
      <point x="727" y="408" type="line"/>
      <point x="478" y="408" type="line"/>
      <point x="438" y="572" type="line"/>
      <point x="771" y="572" type="line"/>
      <point x="771" y="686" type="line"/>
      <point x="255" y="686" type="line"/>
    </contour>
    <contour>
      <point x="203" y="249" type="line"/>
      <point x="295" y="498" type="line"/>
      <point x="301" y="514"/>
      <point x="307" y="530"/>
      <point x="313" y="546" type="curve"/>
      <point x="317" y="546" type="line"/>
      <point x="321" y="531"/>
      <point x="324" y="515"/>
      <point x="328" y="500" type="curve"/>
      <point x="387" y="249" type="line"/>
    </contour>
  </outline>
</glyph>
<glyph name="Oslash" format="2">
  <advance width="638"/>
  <unicode hex="00D8"/>
  <anchor x="319" y="0" name="bottom"/>
  <anchor x="319" y="686" name="top"/>
  <outline>
    <contour>
      <point x="40" y="-37" type="line"/>
      <point x="124" y="-37" type="line"/>
      <point x="599" y="723" type="line"/>
      <point x="515" y="723" type="line"/>
    </contour>
    <component base="O"/>
  </outline>
</glyph>
<glyph name="thorn" format="2">
  <advance width="501"/>
  <unicode hex="00FE"/>
  <outline>
    <contour>
      <point x="55" y="-173" type="line"/>
      <point x="175" y="-173" type="line"/>
      <point x="175" y="54" type="line"/>
      <point x="180" y="54" type="line"/>
      <point x="199" y="12"/>
      <point x="244" y="-12"/>
      <point x="297" y="-12" type="curve" smooth="yes"/>
      <point x="390" y="-12"/>
      <point x="460" y="71"/>
      <point x="460" y="262" type="curve" smooth="yes"/>
      <point x="460" y="453"/>
      <point x="395" y="538"/>
      <point x="291" y="538" type="curve" smooth="yes"/>
      <point x="244" y="538"/>
      <point x="202" y="514"/>
      <point x="176" y="466" type="curve"/>
      <point x="175" y="466" type="line"/>
      <point x="175" y="723" type="line"/>
      <point x="55" y="723" type="line"/>
    </contour>
    <contour>
      <point x="255" y="97" type="curve" smooth="yes"/>
      <point x="197" y="97"/>
      <point x="175" y="151"/>
      <point x="175" y="246" type="curve" smooth="yes"/>
      <point x="175" y="282" type="line"/>
      <point x="175" y="377"/>
      <point x="197" y="429"/>
      <point x="255" y="429" type="curve" smooth="yes"/>
      <point x="313" y="429"/>
      <point x="335" y="377"/>
      <point x="335" y="282" type="curve" smooth="yes"/>
      <point x="335" y="244" type="line" smooth="yes"/>
      <point x="335" y="149"/>
      <point x="313" y="97"/>
    </contour>
  </outline>
</glyph>
<glyph name="dcroat" format="2">
  <advance width="501"/>
  <unicode hex="0111"/>
  <outline>
    <contour>
      <point x="194" y="583" type="line"/>
      <point x="500" y="583" type="line"/>
      <point x="500" y="670" type="line"/>
      <point x="194" y="670" type="line"/>
    </contour>
    <component base="d"/>
  </outline>
</glyph>
<glyph name="idotless" format="2">
  <advance width="228"/>
  <unicode hex="0131"/>
  <anchor x="114" y="0" name="bottom"/>
  <anchor x="160" y="0" name="ogonek"/>
  <anchor x="114" y="526" name="top"/>
  <outline>
    <contour>
      <point x="54" y="0" type="line"/>
      <point x="174" y="0" type="line"/>
      <point x="174" y="526" type="line"/>
      <point x="54" y="526" type="line"/>
    </contour>
  </outline>
</glyph>
<glyph name="Lslash" format="2">
  <advance width="501"/>
  <unicode hex="0141"/>
  <outline>
    <contour>
      <point x="60" y="0" type="line"/>
      <point x="478" y="0" type="line"/>
      <point x="478" y="120" type="line"/>
      <point x="188" y="120" type="line"/>
      <point x="188" y="320" type="line"/>
      <point x="329" y="445" type="line"/>
      <point x="329" y="542" type="line"/>
      <point x="188" y="416" type="line"/>
      <point x="188" y="686" type="line"/>
      <point x="60" y="686" type="line"/>
      <point x="60" y="302" type="line"/>
      <point x="0" y="249" type="line"/>
      <point x="0" y="154" type="line"/>
      <point x="60" y="207" type="line"/>
    </contour>
  </outline>
</glyph>
<glyph name="lslash" format="2">
  <advance width="228"/>
  <unicode hex="0142"/>
  <outline>
    <contour>
      <point x="-14" y="171" type="line"/>
      <point x="253" y="408" type="line"/>
      <point x="253" y="505" type="line"/>
      <point x="-14" y="267" type="line"/>
    </contour>
    <component base="l"/>
  </outline>
</glyph>
<glyph name="Tbar" format="2">
  <advance width="501"/>
  <unicode hex="0166"/>
  <outline>
    <contour>
      <point x="187" y="0" type="line"/>
      <point x="315" y="0" type="line"/>
      <point x="315" y="306" type="line"/>
      <point x="433" y="306" type="line"/>
      <point x="433" y="393" type="line"/>
      <point x="315" y="393" type="line"/>
      <point x="315" y="572" type="line"/>
      <point x="485" y="572" type="line"/>
      <point x="485" y="686" type="line"/>
      <point x="17" y="686" type="line"/>
      <point x="17" y="572" type="line"/>
      <point x="187" y="572" type="line"/>
      <point x="187" y="393" type="line"/>
      <point x="69" y="393" type="line"/>
      <point x="69" y="306" type="line"/>
      <point x="187" y="306" type="line"/>
    </contour>
  </outline>
</glyph>
<glyph name="Schwa" format="2">
  <advance width="600"/>
  <unicode hex="018F"/>
  <outline>
    <contour>
      <point x="305" y="-12" type="curve" smooth="yes"/>
      <point x="483" y="-12"/>
      <point x="566" y="101"/>
      <point x="566" y="343" type="curve" smooth="yes"/>
      <point x="566" y="585"/>
      <point x="481" y="698"/>
      <point x="300" y="698" type="curve" smooth="yes"/>
      <point x="148" y="698"/>
      <point x="50" y="597"/>
      <point x="50" y="442" type="curve"/>
      <point x="172" y="442" type="line"/>
      <point x="172" y="537"/>
      <point x="218" y="590"/>
      <point x="300" y="590" type="curve" smooth="yes"/>
      <point x="394" y="590"/>
      <point x="432" y="531"/>
      <point x="435" y="382" type="curve"/>
      <point x="50" y="382" type="line"/>
      <point x="50" y="343" type="line" smooth="yes"/>
      <point x="50" y="101"/>
      <point x="131" y="-12"/>
    </contour>
    <contour>
      <point x="305" y="96" type="curve" smooth="yes"/>
      <point x="217" y="96"/>
      <point x="178" y="162"/>
      <point x="178" y="279" type="curve"/>
      <point x="433" y="279" type="line"/>
      <point x="435" y="162"/>
      <point x="391" y="96"/>
    </contour>
  </outline>
</glyph>
<glyph name="Fhook" format="2">
  <advance width="501"/>
  <unicode hex="0191"/>
  <outline>
    <contour>
      <point x="51" y="-182" type="curve" smooth="yes"/>
      <point x="151" y="-182"/>
      <point x="188" y="-114"/>
      <point x="188" y="-48" type="curve" smooth="yes"/>
      <point x="188" y="285" type="line"/>
      <point x="423" y="285" type="line"/>
      <point x="423" y="399" type="line"/>
      <point x="188" y="399" type="line"/>
      <point x="188" y="572" type="line"/>
      <point x="463" y="572" type="line"/>
      <point x="463" y="686" type="line"/>
      <point x="60" y="686" type="line"/>
      <point x="60" y="-40" type="line" smooth="yes"/>
      <point x="60" y="-69"/>
      <point x="44" y="-85"/>
      <point x="15" y="-85" type="curve" smooth="yes"/>
      <point x="-34" y="-85" type="line"/>
      <point x="-34" y="-167" type="line"/>
      <point x="-14" y="-175"/>
      <point x="23" y="-182"/>
    </contour>
  </outline>
</glyph>
<glyph name="Nhookleft" format="2">
  <advance width="592"/>
  <unicode hex="019D"/>
  <outline>
    <contour>
      <point x="51" y="-182" type="curve" smooth="yes"/>
      <point x="140" y="-182"/>
      <point x="173" y="-124"/>
      <point x="173" y="-58" type="curve" smooth="yes"/>
      <point x="173" y="382" type="line" smooth="yes"/>
      <point x="173" y="395"/>
      <point x="172" y="422"/>
      <point x="171" y="439" type="curve"/>
      <point x="175" y="442" type="line"/>
      <point x="185" y="421"/>
      <point x="200" y="388"/>
      <point x="206" y="378" type="curve" smooth="yes"/>
      <point x="418" y="0" type="line"/>
      <point x="532" y="0" type="line"/>
      <point x="532" y="686" type="line"/>
      <point x="418" y="686" type="line"/>
      <point x="418" y="304" type="line" smooth="yes"/>
      <point x="418" y="284"/>
      <point x="418" y="265"/>
      <point x="420" y="245" type="curve"/>
      <point x="416" y="244" type="line"/>
      <point x="407" y="264"/>
      <point x="393" y="296"/>
      <point x="385" y="308" type="curve"/>
      <point x="173" y="686" type="line"/>
      <point x="60" y="686" type="line"/>
      <point x="60" y="-40" type="line" smooth="yes"/>
      <point x="60" y="-69"/>
      <point x="44" y="-85"/>
      <point x="15" y="-85" type="curve" smooth="yes"/>
      <point x="-34" y="-85" type="line"/>
      <point x="-34" y="-167" type="line"/>
      <point x="-14" y="-175"/>
      <point x="23" y="-182"/>
    </contour>
  </outline>
</glyph>
<glyph name="LJ" format="2">
  <advance width="907"/>
  <unicode hex="01C7"/>
  <outline>
    <contour>
      <point x="60" y="0" type="line"/>
      <point x="428" y="0" type="line"/>
      <point x="428" y="120" type="line"/>
      <point x="188" y="120" type="line"/>
      <point x="188" y="686" type="line"/>
      <point x="60" y="686" type="line"/>
    </contour>
    <component base="J" xOffset="451"/>
  </outline>
</glyph>
<glyph name="jdotless" format="2">
  <advance width="228"/>
  <unicode hex="0237"/>
  <anchor x="114" y="-182" name="bottom"/>
  <anchor x="114" y="526" name="top"/>
  <outline>
    <contour>
      <point x="52" y="-182" type="curve" smooth="yes"/>
      <point x="148" y="-182"/>
      <point x="174" y="-111"/>
      <point x="174" y="-41" type="curve" smooth="yes"/>
      <point x="174" y="526" type="line"/>
      <point x="54" y="526" type="line"/>
      <point x="54" y="-33" type="line"/>
      <point x="54" y="-64"/>
      <point x="38" y="-81"/>
      <point x="7" y="-81" type="curve" smooth="yes"/>
      <point x="-37" y="-81" type="line"/>
      <point x="-37" y="-170" type="line"/>
      <point x="-16" y="-176"/>
      <point x="22" y="-182"/>
    </contour>
  </outline>
</glyph>
<glyph name="nhookleft" format="2">
  <advance width="501"/>
  <unicode hex="0272"/>
  <outline>
    <contour>
      <point x="53" y="-182" type="curve" smooth="yes"/>
      <point x="149" y="-182"/>
      <point x="175" y="-111"/>
      <point x="175" y="-41" type="curve" smooth="yes"/>
      <point x="175" y="324" type="line" smooth="yes"/>
      <point x="175" y="383"/>
      <point x="210" y="429"/>
      <point x="257" y="429" type="curve" smooth="yes"/>
      <point x="300" y="429"/>
      <point x="326" y="404"/>
      <point x="326" y="336" type="curve" smooth="yes"/>
      <point x="326" y="0" type="line"/>
      <point x="446" y="0" type="line"/>
      <point x="446" y="369" type="line" smooth="yes"/>
      <point x="446" y="493"/>
      <point x="387" y="538"/>
      <point x="306" y="538" type="curve" smooth="yes"/>
      <point x="243" y="538"/>
      <point x="200" y="502"/>
      <point x="173" y="461" type="curve"/>
      <point x="167" y="461" type="line"/>
      <point x="155" y="526" type="line"/>
      <point x="55" y="526" type="line"/>
      <point x="55" y="-33" type="line" smooth="yes"/>
      <point x="55" y="-64"/>
      <point x="39" y="-81"/>
      <point x="8" y="-81" type="curve" smooth="yes"/>
      <point x="-36" y="-81" type="line"/>
      <point x="-36" y="-170" type="line"/>
      <point x="-15" y="-176"/>
      <point x="23" y="-182"/>
    </contour>
  </outline>
</glyph>
<glyph name="apostrophemod" format="2">
  <advance width="138"/>
  <unicode hex="02BC"/>
  <outline>
    <contour>
      <point x="0" y="496" type="line"/>
      <point x="72" y="496" type="line"/>
      <point x="138" y="620" type="line"/>
      <point x="138" y="723" type="line"/>
      <point x="0" y="723" type="line"/>
      <point x="0" y="608" type="line"/>
      <point x="55" y="608" type="line"/>
    </contour>
  </outline>
</glyph>
<glyph name="uni02C9" format="2">
  <advance width="273"/>
  <unicode hex="02C9"/>
  <outline>
    <contour>
      <point x="9" y="600" type="line"/>
      <point x="264" y="600" type="line"/>
      <point x="264" y="687" type="line"/>
      <point x="9" y="687" type="line"/>
    </contour>
  </outline>
</glyph>
<glyph name="dotaccent" format="2">
  <advance width="273"/>
  <unicode hex="02D9"/>
  <outline>
    <contour>
      <point x="83" y="608" type="line"/>
      <point x="190" y="608" type="line"/>
      <point x="190" y="723" type="line"/>
      <point x="83" y="723" type="line"/>
    </contour>
  </outline>
</glyph>
<glyph name="ogonek" format="2">
  <advance width="273"/>
  <unicode hex="02DB"/>
  <outline>
    <contour>
      <point x="161" y="-190" type="curve" smooth="yes"/>
      <point x="183" y="-190"/>
      <point x="204" y="-185"/>
      <point x="227" y="-176" type="curve"/>
      <point x="227" y="-121" type="line"/>
      <point x="205" y="-121" type="line" smooth="yes"/>
      <point x="175" y="-121"/>
      <point x="160" y="-100"/>
      <point x="160" y="-73" type="curve" smooth="yes"/>
      <point x="160" y="-50"/>
      <point x="170" y="-23"/>
      <point x="190" y="0" type="curve"/>
      <point x="188" y="4" type="line"/>
      <point x="110" y="4" type="line"/>
      <point x="77" y="-30"/>
      <point x="61" y="-68"/>
      <point x="61" y="-102" type="curve" smooth="yes"/>
      <point x="61" y="-151"/>
      <point x="95" y="-190"/>
    </contour>
  </outline>
</glyph>
<glyph name="gravecomb" format="2">
  <unicode hex="0300"/>
  <anchor x="159" y="526" name="_top"/>
  <anchor x="159" y="723" name="top"/>
  <outline>
    <contour>
      <point x="129" y="591" type="line"/>
      <point x="228" y="591" type="line"/>
      <point x="142" y="723" type="line"/>
      <point x="22" y="723" type="line"/>
      <point x="21" y="720" type="line"/>
    </contour>
  </outline>
</glyph>
<glyph name="acutecomb" format="2">
  <unicode hex="0301"/>
  <anchor x="69" y="526" name="_top"/>
  <anchor x="69" y="723" name="top"/>
  <outline>
    <contour>
      <point x="0" y="591" type="line"/>
      <point x="99" y="591" type="line"/>
      <point x="207" y="720" type="line"/>
      <point x="206" y="723" type="line"/>
      <point x="86" y="723" type="line"/>
    </contour>
  </outline>
</glyph>
<glyph name="circumflexcomb" format="2">
  <unicode hex="0302"/>
  <anchor x="135" y="526" name="_top"/>
  <anchor x="135" y="693" name="top"/>
  <outline>
    <contour>
      <point x="0" y="588" type="line"/>
      <point x="90" y="588" type="line"/>
      <point x="135" y="657" type="line"/>
      <point x="179" y="588" type="line"/>
      <point x="269" y="588" type="line"/>
      <point x="184" y="723" type="line"/>
      <point x="86" y="723" type="line"/>
    </contour>
  </outline>
</glyph>
<glyph name="tildecomb" format="2">
  <unicode hex="0303"/>
  <anchor x="168" y="526" name="_top"/>
  <anchor x="168" y="723" name="top"/>
  <outline>
    <contour>
      <point x="0" y="601" type="curve"/>
      <point x="66" y="601" type="line"/>
      <point x="70" y="628"/>
      <point x="84" y="638"/>
      <point x="105" y="638" type="curve" smooth="yes"/>
      <point x="150" y="638"/>
      <point x="189" y="601"/>
      <point x="237" y="601" type="curve" smooth="yes"/>
      <point x="308" y="601"/>
      <point x="336" y="668"/>
      <point x="336" y="723" type="curve"/>
      <point x="270" y="723" type="line"/>
      <point x="266" y="695"/>
      <point x="252" y="686"/>
      <point x="231" y="686" type="curve" smooth="yes"/>
      <point x="186" y="686"/>
      <point x="147" y="723"/>
      <point x="98" y="723" type="curve" smooth="yes"/>
      <point x="28" y="723"/>
      <point x="0" y="656"/>
    </contour>
  </outline>
</glyph>
<glyph name="macroncomb" format="2">
  <unicode hex="0304"/>
  <anchor x="128" y="526" name="_top"/>
  <anchor x="128" y="686" name="top"/>
  <outline>
    <contour>
      <point x="0" y="599" type="line"/>
      <point x="255" y="599" type="line"/>
      <point x="255" y="686" type="line"/>
      <point x="0" y="686" type="line"/>
    </contour>
  </outline>
</glyph>
<glyph name="brevecomb" format="2">
  <unicode hex="0306"/>
  <anchor x="134" y="526" name="_top"/>
  <anchor x="134" y="650" name="top"/>
  <outline>
    <contour>
      <point x="133" y="576" type="curve" smooth="yes"/>
      <point x="216" y="576"/>
      <point x="267" y="633"/>
      <point x="267" y="683" type="curve"/>
      <point x="193" y="683" type="line"/>
      <point x="191" y="669"/>
      <point x="167" y="650"/>
      <point x="133" y="650" type="curve" smooth="yes"/>
      <point x="100" y="650"/>
      <point x="77" y="669"/>
      <point x="74" y="683" type="curve"/>
      <point x="0" y="683" type="line"/>
      <point x="0" y="633"/>
      <point x="51" y="576"/>
    </contour>
  </outline>
</glyph>
<glyph name="dotaccentcomb" format="2">
  <unicode hex="0307"/>
  <anchor x="61" y="526" name="_top"/>
  <anchor x="61" y="723" name="top"/>
  <outline>
    <contour>
      <point x="0" y="608" type="line"/>
      <point x="121" y="608" type="line"/>
      <point x="121" y="723" type="line"/>
      <point x="0" y="723" type="line"/>
    </contour>
  </outline>
</glyph>
<glyph name="hookabovecomb" format="2">
  <unicode hex="0309"/>
  <anchor x="70" y="526" name="_top"/>
  <anchor x="70" y="723" name="top"/>
  <outline>
    <contour>
      <point x="37" y="586" type="line"/>
      <point x="101" y="586" type="line"/>
      <point x="101" y="607" type="line"/>
      <point x="136" y="610"/>
      <point x="167" y="626"/>
      <point x="167" y="664" type="curve" smooth="yes"/>
      <point x="167" y="714"/>
      <point x="110" y="725"/>
      <point x="69" y="725" type="curve" smooth="yes"/>
      <point x="48" y="725"/>
      <point x="20" y="722"/>
      <point x="0" y="717" type="curve"/>
      <point x="0" y="675" type="line"/>
      <point x="48" y="675" type="line" smooth="yes"/>
      <point x="70" y="675"/>
      <point x="82" y="671"/>
      <point x="82" y="656" type="curve" smooth="yes"/>
      <point x="82" y="643"/>
      <point x="74" y="637"/>
      <point x="51" y="637" type="curve" smooth="yes"/>
      <point x="37" y="637" type="line"/>
    </contour>
  </outline>
</glyph>
<glyph name="ringcomb" format="2">
  <unicode hex="030A"/>
  <anchor x="96" y="526" name="_top"/>
  <anchor x="96" y="723" name="top"/>
  <outline>
    <contour>
      <point x="96" y="561" type="curve" smooth="yes"/>
      <point x="149" y="561"/>
      <point x="192" y="604"/>
      <point x="192" y="657" type="curve" smooth="yes"/>
      <point x="192" y="709"/>
      <point x="150" y="753"/>
      <point x="96" y="753" type="curve" smooth="yes"/>
      <point x="43" y="753"/>
      <point x="0" y="710"/>
      <point x="0" y="657" type="curve" smooth="yes"/>
      <point x="0" y="603"/>
      <point x="44" y="561"/>
    </contour>
    <contour>
      <point x="96" y="611" type="curve" smooth="yes"/>
      <point x="70" y="611"/>
      <point x="50" y="631"/>
      <point x="50" y="657" type="curve" smooth="yes"/>
      <point x="50" y="683"/>
      <point x="70" y="703"/>
      <point x="96" y="703" type="curve" smooth="yes"/>
      <point x="121" y="703"/>
      <point x="142" y="683"/>
      <point x="142" y="657" type="curve" smooth="yes"/>
      <point x="142" y="631"/>
      <point x="121" y="611"/>
    </contour>
  </outline>
</glyph>
<glyph name="hungarumlautcomb" format="2">
  <unicode hex="030B"/>
  <anchor x="117" y="526" name="_top"/>
  <anchor x="117" y="723" name="top"/>
  <outline>
    <contour>
      <point x="144" y="591" type="line"/>
      <point x="223" y="591" type="line"/>
      <point x="307" y="720" type="line"/>
      <point x="306" y="723" type="line"/>
      <point x="206" y="723" type="line"/>
    </contour>
    <contour>
      <point x="4" y="591" type="line"/>
      <point x="83" y="591" type="line"/>
      <point x="167" y="720" type="line"/>
      <point x="166" y="723" type="line"/>
      <point x="66" y="723" type="line"/>
    </contour>
  </outline>
</glyph>
<glyph name="dblgravecomb" format="2">
  <unicode hex="030F"/>
  <anchor x="185" y="526" name="_top"/>
  <anchor x="185" y="723" name="top"/>
  <outline>
    <contour>
      <point x="226" y="591" type="line"/>
      <point x="303" y="591" type="line"/>
      <point x="241" y="723" type="line"/>
      <point x="143" y="723" type="line"/>
      <point x="142" y="720" type="line"/>
    </contour>
    <contour>
      <point x="84" y="591" type="line"/>
      <point x="165" y="591" type="line"/>
      <point x="103" y="723" type="line"/>
      <point x="1" y="723" type="line"/>
      <point x="0" y="720" type="line"/>
    </contour>
  </outline>
</glyph>
<glyph name="breveinvertedcomb" format="2">
  <unicode hex="0311"/>
  <anchor x="135" y="526" name="_top"/>
  <anchor x="135" y="703" name="top"/>
  <outline>
    <contour>
      <point x="1" y="596" type="curve"/>
      <point x="75" y="596" type="line"/>
      <point x="78" y="610"/>
      <point x="101" y="629"/>
      <point x="134" y="629" type="curve" smooth="yes"/>
      <point x="168" y="629"/>
      <point x="192" y="610"/>
      <point x="194" y="596" type="curve"/>
      <point x="268" y="596" type="line"/>
      <point x="268" y="646"/>
      <point x="217" y="703"/>
      <point x="134" y="703" type="curve" smooth="yes"/>
      <point x="52" y="703"/>
      <point x="1" y="646"/>
    </contour>
  </outline>
</glyph>
<glyph name="commaturnedabovecomb" format="2">
  <unicode hex="0312"/>
  <anchor x="63" y="526" name="_top"/>
  <anchor x="63" y="686" name="top"/>
  <outline>
    <contour>
      <point x="0" y="608" type="line"/>
      <point x="121" y="608" type="line"/>
      <point x="121" y="719" type="line"/>
      <point x="88" y="719" type="line"/>
      <point x="125" y="804" type="line"/>
      <point x="46" y="804" type="line"/>
      <point x="0" y="708" type="line"/>
    </contour>
  </outline>
</glyph>
<glyph name="horncomb" format="2">
  <unicode hex="031B"/>
  <anchor x="0" y="526" name="_topright"/>
  <anchor x="0" y="640" name="topright"/>
  <outline>
    <contour>
      <point x="0" y="466" type="line"/>
      <point x="80" y="466" type="line" smooth="yes"/>
      <point x="159" y="466"/>
      <point x="210" y="510"/>
      <point x="210" y="579" type="curve" smooth="yes"/>
      <point x="210" y="640" type="line"/>
      <point x="125" y="640" type="line"/>
      <point x="125" y="579" type="line" smooth="yes"/>
      <point x="125" y="543"/>
      <point x="108" y="526"/>
      <point x="60" y="526" type="curve" smooth="yes"/>
      <point x="0" y="526" type="line"/>
    </contour>
  </outline>
</glyph>
<glyph name="dotbelowcomb" format="2">
  <unicode hex="0323"/>
  <anchor x="59" y="0" name="_bottom"/>
  <anchor x="59" y="-182" name="bottom"/>
  <outline>
    <contour>
      <point x="0" y="-182" type="line"/>
      <point x="117" y="-182" type="line"/>
      <point x="117" y="-67" type="line"/>
      <point x="0" y="-67" type="line"/>
    </contour>
  </outline>
</glyph>
<glyph name="dieresisbelowcomb" format="2">
  <unicode hex="0324"/>
  <anchor x="138" y="0" name="_bottom"/>
  <anchor x="138" y="-182" name="bottom"/>
  <outline>
    <contour>
      <point x="165" y="-182" type="line"/>
      <point x="275" y="-182" type="line"/>
      <point x="275" y="-67" type="line"/>
      <point x="165" y="-67" type="line"/>
    </contour>
    <contour>
      <point x="0" y="-182" type="line"/>
      <point x="110" y="-182" type="line"/>
      <point x="110" y="-67" type="line"/>
      <point x="0" y="-67" type="line"/>
    </contour>
  </outline>
</glyph>
<glyph name="commaaccentcomb" format="2">
  <unicode hex="0326"/>
  <anchor x="56" y="0" name="_bottom"/>
  <anchor x="56" y="-182" name="bottom"/>
  <outline>
    <contour>
      <point x="0" y="-263" type="line"/>
      <point x="65" y="-263" type="line"/>
      <point x="111" y="-167" type="line"/>
      <point x="111" y="-67" type="line"/>
      <point x="4" y="-67" type="line"/>
      <point x="4" y="-178" type="line"/>
      <point x="36" y="-178" type="line"/>
    </contour>
  </outline>
</glyph>
<glyph name="cedillacomb" format="2">
  <unicode hex="0327"/>
  <anchor x="97" y="0" name="_bottom"/>
  <anchor x="97" y="-182" name="bottom"/>
  <outline>
    <contour>
      <point x="84" y="-182" type="curve" smooth="yes"/>
      <point x="127" y="-182"/>
      <point x="193" y="-168"/>
      <point x="193" y="-101" type="curve" smooth="yes"/>
      <point x="193" y="-55"/>
      <point x="157" y="-36"/>
      <point x="114" y="-33" type="curve"/>
      <point x="119" y="11" type="line"/>
      <point x="51" y="11" type="line"/>
      <point x="40" y="-77" type="line"/>
      <point x="73" y="-77" type="line" smooth="yes"/>
      <point x="99" y="-77"/>
      <point x="107" y="-85"/>
      <point x="107" y="-101" type="curve" smooth="yes"/>
      <point x="107" y="-120"/>
      <point x="93" y="-125"/>
      <point x="71" y="-125" type="curve"/>
      <point x="0" y="-125" type="line"/>
      <point x="0" y="-174" type="line"/>
      <point x="24" y="-179"/>
      <point x="56" y="-182"/>
    </contour>
  </outline>
</glyph>
<glyph name="ogonekcomb" format="2">
  <unicode hex="0328"/>
  <anchor x="128" y="0" name="_ogonek"/>
  <outline>
    <contour>
      <point x="99" y="-190" type="curve" smooth="yes"/>
      <point x="121" y="-190"/>
      <point x="142" y="-185"/>
      <point x="165" y="-176" type="curve"/>
      <point x="165" y="-121" type="line"/>
      <point x="143" y="-121" type="line" smooth="yes"/>
      <point x="110" y="-121"/>
      <point x="97" y="-96"/>
      <point x="97" y="-70" type="curve" smooth="yes"/>
      <point x="97" y="-42"/>
      <point x="112" y="-14"/>
      <point x="128" y="0" type="curve"/>
      <point x="126" y="4" type="line"/>
      <point x="48" y="4" type="line"/>
      <point x="23" y="-22"/>
      <point x="0" y="-62"/>
      <point x="0" y="-100" type="curve" smooth="yes"/>
      <point x="0" y="-169"/>
      <point x="53" y="-190"/>
    </contour>
  </outline>
</glyph>
<glyph name="strokelongcomb" format="2">
  <unicode hex="0336"/>
  <anchor x="286" y="370" name="_center"/>
  <outline>
    <contour>
      <point x="0" y="324" type="line"/>
      <point x="573" y="324" type="line"/>
      <point x="573" y="416" type="line"/>
      <point x="0" y="416" type="line"/>
    </contour>
  </outline>
</glyph>
<glyph name="slashlongcomb" format="2">
  <unicode hex="0338"/>
  <anchor x="198" y="263" name="_center"/>
  <outline>
    <contour>
      <point x="0" y="-32" type="line"/>
      <point x="75" y="-32" type="line"/>
      <point x="396" y="558" type="line"/>
      <point x="321" y="558" type="line"/>
    </contour>
  </outline>
</glyph>
<glyph name="Germandbls" format="2">
  <advance width="611"/>
  <unicode hex="1E9E"/>
  <outline>
    <contour>
      <point x="50" y="0" type="line"/>
      <point x="175" y="0" type="line"/>
      <point x="175" y="424" type="line" smooth="yes"/>
      <point x="175" y="532"/>
      <point x="224" y="592"/>
      <point x="312" y="592" type="curve" smooth="yes"/>
      <point x="393" y="592"/>
      <point x="438" y="557"/>
      <point x="438" y="494" type="curve" smooth="yes"/>
      <point x="438" y="425"/>
      <point x="403" y="386"/>
      <point x="331" y="386" type="curve" smooth="yes"/>
      <point x="245" y="386" type="line"/>
      <point x="245" y="293" type="line"/>
      <point x="334" y="293" type="line" smooth="yes"/>
      <point x="429" y="293"/>
      <point x="473" y="251"/>
      <point x="473" y="192" type="curve" smooth="yes"/>
      <point x="473" y="128"/>
      <point x="438" y="93"/>
      <point x="374" y="93" type="curve" smooth="yes"/>
      <point x="245" y="93" type="line"/>
      <point x="245" y="0" type="line"/>
      <point x="387" y="0" type="line" smooth="yes"/>
      <point x="515" y="0"/>
      <point x="600" y="75"/>
      <point x="600" y="187" type="curve" smooth="yes"/>
      <point x="600" y="271"/>
      <point x="552" y="327"/>
      <point x="475" y="347" type="curve"/>
      <point x="475" y="351" type="line"/>
      <point x="525" y="371"/>
      <point x="566" y="431"/>
      <point x="566" y="503" type="curve" smooth="yes"/>
      <point x="566" y="621"/>
      <point x="472" y="698"/>
      <point x="313" y="698" type="curve" smooth="yes"/>
      <point x="144" y="698"/>
      <point x="50" y="600"/>
      <point x="50" y="424" type="curve" smooth="yes"/>
    </contour>
  </outline>
</glyph>
<glyph name="emdash" format="2">
  <advance width="820"/>
  <unicode hex="2014"/>
  <outline>
    <contour>
      <point x="0" y="221" type="line"/>
      <point x="820" y="221" type="line"/>
      <point x="820" y="319" type="line"/>
      <point x="0" y="319" type="line"/>
    </contour>
  </outline>
</glyph>
<glyph name="horizontalbar" format="2">
  <advance width="820"/>
  <unicode hex="2015"/>
  <outline>
    <contour>
      <point x="100" y="223" type="line"/>
      <point x="720" y="223" type="line"/>
      <point x="720" y="318" type="line"/>
      <point x="100" y="318" type="line"/>
    </contour>
  </outline>
</glyph>
<glyph name="underscoredbl" format="2">
  <advance width="500"/>
  <unicode hex="2017"/>
  <outline>
    <contour>
      <point x="23" y="-149" type="line"/>
      <point x="478" y="-149" type="line"/>
      <point x="478" y="-71" type="line"/>
      <point x="23" y="-71" type="line"/>
    </contour>
    <contour>
      <point x="23" y="-263" type="line"/>
      <point x="478" y="-263" type="line"/>
      <point x="478" y="-185" type="line"/>
      <point x="23" y="-185" type="line"/>
    </contour>
  </outline>
</glyph>
<glyph name="fraction" format="2">
  <advance width="137"/>
  <unicode hex="2044"/>
  <outline>
    <contour>
      <point x="-153" y="-12" type="line"/>
      <point x="-86" y="-12" type="line"/>
      <point x="309" y="698" type="line"/>
      <point x="243" y="698" type="line"/>
    </contour>
  </outline>
</glyph>
<glyph name="commercialMinusSign" format="2">
  <advance width="600"/>
  <unicode hex="2052"/>
  <outline>
    <contour>
      <point x="69" y="-12" type="line"/>
      <point x="136" y="-12" type="line"/>
      <point x="531" y="698" type="line"/>
      <point x="465" y="698" type="line"/>
    </contour>
    <contour>
      <point x="79" y="551" type="line"/>
      <point x="204" y="551" type="line"/>
      <point x="204" y="686" type="line"/>
      <point x="79" y="686" type="line"/>
    </contour>
    <contour>
      <point x="396" y="0" type="line"/>
      <point x="521" y="0" type="line"/>
      <point x="521" y="135" type="line"/>
      <point x="396" y="135" type="line"/>
    </contour>
  </outline>
</glyph>
<glyph name="zerosuperior" format="2">
  <advance width="273"/>
  <unicode hex="2070"/>
  <outline>
    <contour>
      <point x="137" y="428" type="curve" smooth="yes"/>
      <point x="210" y="428"/>
      <point x="254" y="467"/>
      <point x="254" y="612" type="curve" smooth="yes"/>
      <point x="254" y="758"/>
      <point x="210" y="798"/>
      <point x="137" y="798" type="curve" smooth="yes"/>
      <point x="63" y="798"/>
      <point x="19" y="758"/>
      <point x="19" y="612" type="curve" smooth="yes"/>
      <point x="19" y="467"/>
      <point x="63" y="428"/>
    </contour>
    <contour>
      <point x="137" y="496" type="curve" smooth="yes"/>
      <point x="105" y="496"/>
      <point x="97" y="522"/>
      <point x="97" y="589" type="curve" smooth="yes"/>
      <point x="97" y="637" type="line" smooth="yes"/>
      <point x="97" y="695"/>
      <point x="105" y="730"/>
      <point x="137" y="730" type="curve" smooth="yes"/>
      <point x="168" y="730"/>
      <point x="176" y="695"/>
      <point x="176" y="637" type="curve" smooth="yes"/>
      <point x="176" y="589" type="line" smooth="yes"/>
      <point x="176" y="522"/>
      <point x="168" y="496"/>
    </contour>
  </outline>
</glyph>
<glyph name="foursuperior" format="2">
  <advance width="273"/>
  <unicode hex="2074"/>
  <outline>
    <contour>
      <point x="152" y="433" type="line"/>
      <point x="228" y="433" type="line"/>
      <point x="228" y="513" type="line"/>
      <point x="255" y="513" type="line"/>
      <point x="255" y="573" type="line"/>
      <point x="228" y="573" type="line"/>
      <point x="228" y="740" type="line"/>
      <point x="189" y="740" type="line"/>
      <point x="179" y="707"/>
      <point x="165" y="668"/>
      <point x="152" y="644" type="curve"/>
      <point x="152" y="573" type="line"/>
      <point x="83" y="573" type="line"/>
      <point x="119" y="626"/>
      <point x="156" y="716"/>
      <point x="175" y="798" type="curve"/>
      <point x="97" y="798" type="line"/>
      <point x="79" y="705"/>
      <point x="50" y="625"/>
      <point x="10" y="562" type="curve"/>
      <point x="10" y="513" type="line"/>
      <point x="152" y="513" type="line"/>
    </contour>
  </outline>
</glyph>
<glyph name="fivesuperior" format="2">
  <advance width="273"/>
  <unicode hex="2075"/>
  <outline>
    <contour>
      <point x="139" y="428" type="curve" smooth="yes"/>
      <point x="210" y="428"/>
      <point x="253" y="474"/>
      <point x="253" y="553" type="curve" smooth="yes"/>
      <point x="253" y="634"/>
      <point x="207" y="672"/>
      <point x="153" y="672" type="curve" smooth="yes"/>
      <point x="132" y="672"/>
      <point x="119" y="665"/>
      <point x="106" y="657" type="curve"/>
      <point x="111" y="724" type="line"/>
      <point x="234" y="724" type="line"/>
      <point x="234" y="786" type="line"/>
      <point x="47" y="786" type="line"/>
      <point x="34" y="600" type="line"/>
      <point x="99" y="591" type="line"/>
      <point x="111" y="604"/>
      <point x="120" y="612"/>
      <point x="135" y="612" type="curve" smooth="yes"/>
      <point x="163" y="612"/>
      <point x="182" y="594"/>
      <point x="182" y="553" type="curve" smooth="yes"/>
      <point x="182" y="509"/>
      <point x="164" y="488"/>
      <point x="139" y="488" type="curve" smooth="yes"/>
      <point x="115" y="488"/>
      <point x="97" y="510"/>
      <point x="97" y="547" type="curve"/>
      <point x="24" y="547" type="line"/>
      <point x="24" y="473"/>
      <point x="69" y="428"/>
    </contour>
  </outline>
</glyph>
<glyph name="sixsuperior" format="2">
  <advance width="273"/>
  <unicode hex="2076"/>
  <outline>
    <contour>
      <point x="151" y="428" type="curve" smooth="yes"/>
      <point x="215" y="428"/>
      <point x="258" y="474"/>
      <point x="258" y="543" type="curve" smooth="yes"/>
      <point x="258" y="609"/>
      <point x="229" y="661"/>
      <point x="163" y="661" type="curve" smooth="yes"/>
      <point x="135" y="661"/>
      <point x="115" y="651"/>
      <point x="103" y="636" type="curve"/>
      <point x="104" y="697"/>
      <point x="112" y="735"/>
      <point x="142" y="735" type="curve" smooth="yes"/>
      <point x="166" y="735"/>
      <point x="176" y="715"/>
      <point x="176" y="682" type="curve"/>
      <point x="247" y="682" type="line"/>
      <point x="247" y="759"/>
      <point x="214" y="798"/>
      <point x="148" y="798" type="curve" smooth="yes"/>
      <point x="60" y="798"/>
      <point x="28" y="745"/>
      <point x="28" y="603" type="curve" smooth="yes"/>
      <point x="28" y="483"/>
      <point x="67" y="428"/>
    </contour>
    <contour>
      <point x="147" y="495" type="curve" smooth="yes"/>
      <point x="120" y="495"/>
      <point x="105" y="517"/>
      <point x="105" y="549" type="curve" smooth="yes"/>
      <point x="105" y="579"/>
      <point x="119" y="600"/>
      <point x="145" y="600" type="curve" smooth="yes"/>
      <point x="171" y="600"/>
      <point x="186" y="578"/>
      <point x="186" y="546" type="curve" smooth="yes"/>
      <point x="186" y="516"/>
      <point x="172" y="495"/>
    </contour>
  </outline>
</glyph>
<glyph name="sevensuperior" format="2">
  <advance width="273"/>
  <unicode hex="2077"/>
  <outline>
    <contour>
      <point x="71" y="428" type="curve"/>
      <point x="155" y="428" type="line"/>
      <point x="154" y="440"/>
      <point x="154" y="445"/>
      <point x="154" y="455" type="curve" smooth="yes"/>
      <point x="154" y="563"/>
      <point x="201" y="670"/>
      <point x="248" y="741" type="curve"/>
      <point x="248" y="786" type="line"/>
      <point x="35" y="786" type="line"/>
      <point x="35" y="724" type="line"/>
      <point x="173" y="724" type="line"/>
      <point x="116" y="653"/>
      <point x="71" y="542"/>
    </contour>
  </outline>
</glyph>
<glyph name="eightsuperior" format="2">
  <advance width="273"/>
  <unicode hex="2078"/>
  <outline>
    <contour>
      <point x="138" y="428" type="curve" smooth="yes"/>
      <point x="217" y="428"/>
      <point x="251" y="474"/>
      <point x="251" y="530" type="curve" smooth="yes"/>
      <point x="251" y="566"/>
      <point x="236" y="599"/>
      <point x="199" y="618" type="curve"/>
      <point x="228" y="635"/>
      <point x="243" y="665"/>
      <point x="243" y="699" type="curve" smooth="yes"/>
      <point x="243" y="753"/>
      <point x="208" y="798"/>
      <point x="138" y="798" type="curve" smooth="yes"/>
      <point x="67" y="798"/>
      <point x="32" y="753"/>
      <point x="32" y="699" type="curve" smooth="yes"/>
      <point x="32" y="665"/>
      <point x="46" y="635"/>
      <point x="75" y="618" type="curve"/>
      <point x="39" y="599"/>
      <point x="25" y="566"/>
      <point x="25" y="530" type="curve" smooth="yes"/>
      <point x="25" y="474"/>
      <point x="58" y="428"/>
    </contour>
    <contour>
      <point x="139" y="487" type="curve" smooth="yes"/>
      <point x="114" y="487"/>
      <point x="100" y="505"/>
      <point x="100" y="538" type="curve" smooth="yes"/>
      <point x="100" y="573"/>
      <point x="114" y="592"/>
      <point x="139" y="592" type="curve" smooth="yes"/>
      <point x="164" y="592"/>
      <point x="177" y="573"/>
      <point x="177" y="538" type="curve" smooth="yes"/>
      <point x="177" y="505"/>
      <point x="164" y="487"/>
    </contour>
    <contour>
      <point x="139" y="645" type="curve" smooth="yes"/>
      <point x="118" y="645"/>
      <point x="106" y="663"/>
      <point x="106" y="696" type="curve" smooth="yes"/>
      <point x="106" y="727"/>
      <point x="118" y="743"/>
      <point x="139" y="743" type="curve" smooth="yes"/>
      <point x="159" y="743"/>
      <point x="171" y="727"/>
      <point x="171" y="696" type="curve" smooth="yes"/>
      <point x="171" y="663"/>
      <point x="159" y="645"/>
    </contour>
  </outline>
</glyph>
<glyph name="ninesuperior" format="2">
  <advance width="273"/>
  <unicode hex="2079"/>
  <outline>
    <contour>
      <point x="137" y="430" type="curve" smooth="yes"/>
      <point x="207" y="430"/>
      <point x="250" y="476"/>
      <point x="250" y="625" type="curve" smooth="yes"/>
      <point x="250" y="757"/>
      <point x="205" y="799"/>
      <point x="132" y="799" type="curve" smooth="yes"/>
      <point x="69" y="799"/>
      <point x="24" y="755"/>
      <point x="24" y="684" type="curve" smooth="yes"/>
      <point x="24" y="617"/>
      <point x="56" y="569"/>
      <point x="120" y="569" type="curve" smooth="yes"/>
      <point x="144" y="569"/>
      <point x="165" y="578"/>
      <point x="178" y="593" type="curve"/>
      <point x="177" y="532"/>
      <point x="170" y="492"/>
      <point x="139" y="492" type="curve" smooth="yes"/>
      <point x="115" y="492"/>
      <point x="107" y="512"/>
      <point x="107" y="546" type="curve"/>
      <point x="33" y="546" type="line"/>
      <point x="33" y="480"/>
      <point x="63" y="430"/>
    </contour>
    <contour>
      <point x="134" y="630" type="curve" smooth="yes"/>
      <point x="110" y="630"/>
      <point x="98" y="650"/>
      <point x="98" y="681" type="curve" smooth="yes"/>
      <point x="98" y="714"/>
      <point x="110" y="738"/>
      <point x="134" y="738" type="curve" smooth="yes"/>
      <point x="159" y="738"/>
      <point x="171" y="714"/>
      <point x="171" y="681" type="curve" smooth="yes"/>
      <point x="171" y="650"/>
      <point x="159" y="630"/>
    </contour>
  </outline>
</glyph>
<glyph name="colonsign" format="2">
  <advance width="592"/>
  <unicode hex="20A1"/>
  <outline>
    <contour>
      <point x="307" y="-12" type="curve" smooth="yes"/>
      <point x="449" y="-12"/>
      <point x="554" y="74"/>
      <point x="554" y="254" type="curve"/>
      <point x="434" y="254" type="line"/>
      <point x="434" y="141"/>
      <point x="385" y="88"/>
      <point x="311" y="88" type="curve" smooth="yes"/>
      <point x="206" y="88"/>
      <point x="156" y="175"/>
      <point x="156" y="318" type="curve" smooth="yes"/>
      <point x="156" y="368" type="line" smooth="yes"/>
      <point x="156" y="511"/>
      <point x="205" y="598"/>
      <point x="307" y="598" type="curve" smooth="yes"/>
      <point x="385" y="598"/>
      <point x="438" y="544"/>
      <point x="438" y="431" type="curve"/>
      <point x="554" y="431" type="line"/>
      <point x="554" y="617"/>
      <point x="447" y="698"/>
      <point x="307" y="698" type="curve" smooth="yes"/>
      <point x="137" y="698"/>
      <point x="37" y="585"/>
      <point x="37" y="343" type="curve" smooth="yes"/>
      <point x="37" y="101"/>
      <point x="137" y="-12"/>
    </contour>
    <contour>
      <point x="146" y="-109" type="line"/>
      <point x="200" y="-109" type="line"/>
      <point x="361" y="783" type="line"/>
      <point x="308" y="783" type="line"/>
    </contour>
    <contour>
      <point x="243" y="-109" type="line"/>
      <point x="297" y="-109" type="line"/>
      <point x="458" y="783" type="line"/>
      <point x="405" y="783" type="line"/>
    </contour>
  </outline>
</glyph>
<glyph name="franc" format="2">
  <advance width="504"/>
  <unicode hex="20A3"/>
  <outline>
    <contour>
      <point x="60" y="0" type="line"/>
      <point x="188" y="0" type="line"/>
      <point x="188" y="285" type="line"/>
      <point x="423" y="285" type="line"/>
      <point x="423" y="399" type="line"/>
      <point x="188" y="399" type="line"/>
      <point x="188" y="572" type="line"/>
      <point x="463" y="572" type="line"/>
      <point x="463" y="686" type="line"/>
      <point x="60" y="686" type="line"/>
    </contour>
    <contour>
      <point x="0" y="121" type="line"/>
      <point x="331" y="121" type="line"/>
      <point x="331" y="186" type="line"/>
      <point x="0" y="186" type="line"/>
    </contour>
  </outline>
</glyph>
<glyph name="naira" format="2">
  <advance width="592"/>
  <unicode hex="20A6"/>
  <outline>
    <contour>
      <point x="65" y="0" type="line"/>
      <point x="173" y="0" type="line"/>
      <point x="173" y="382" type="line" smooth="yes"/>
      <point x="173" y="406"/>
      <point x="171" y="459"/>
      <point x="171" y="459" type="curve"/>
      <point x="177" y="461" type="line"/>
      <point x="185" y="434"/>
      <point x="205" y="389"/>
      <point x="225" y="357" type="curve" smooth="yes"/>
      <point x="438" y="0" type="line"/>
      <point x="527" y="0" type="line"/>
      <point x="527" y="686" type="line"/>
      <point x="419" y="686" type="line"/>
      <point x="419" y="304" type="line" smooth="yes"/>
      <point x="419" y="289"/>
      <point x="420" y="227"/>
      <point x="420" y="227" type="curve"/>
      <point x="415" y="224" type="line"/>
      <point x="404" y="256"/>
      <point x="385" y="298"/>
      <point x="371" y="322" type="curve" smooth="yes"/>
      <point x="153" y="686" type="line"/>
      <point x="65" y="686" type="line"/>
    </contour>
    <contour>
      <point x="0" y="227" type="line"/>
      <point x="145" y="227" type="line"/>
      <point x="145" y="308" type="line"/>
      <point x="0" y="308" type="line"/>
    </contour>
    <contour>
      <point x="0" y="378" type="line"/>
      <point x="145" y="378" type="line"/>
      <point x="145" y="459" type="line"/>
      <point x="0" y="459" type="line"/>
    </contour>
    <contour>
      <point x="457" y="227" type="line"/>
      <point x="592" y="227" type="line"/>
      <point x="592" y="308" type="line"/>
      <point x="457" y="308" type="line"/>
    </contour>
    <contour>
      <point x="457" y="378" type="line"/>
      <point x="592" y="378" type="line"/>
      <point x="592" y="459" type="line"/>
      <point x="457" y="459" type="line"/>
    </contour>
  </outline>
</glyph>
<glyph name="peseta" format="2">
  <advance width="547"/>
  <unicode hex="20A7"/>
  <outline>
    <contour>
      <point x="60" y="0" type="line"/>
      <point x="179" y="0" type="line"/>
      <point x="179" y="246" type="line"/>
      <point x="265" y="246" type="line"/>
      <point x="400" y="246"/>
      <point x="490" y="335"/>
      <point x="490" y="470" type="curve" smooth="yes"/>
      <point x="490" y="595"/>
      <point x="414" y="686"/>
      <point x="265" y="686" type="curve" smooth="yes"/>
      <point x="60" y="686" type="line"/>
    </contour>
    <contour>
      <point x="0" y="447" type="line"/>
      <point x="547" y="447" type="line"/>
      <point x="547" y="497" type="line"/>
      <point x="0" y="497" type="line"/>
    </contour>
    <contour>
      <point x="179" y="347" type="line"/>
      <point x="179" y="584" type="line"/>
      <point x="252" y="584" type="line" smooth="yes"/>
      <point x="327" y="584"/>
      <point x="371" y="539"/>
      <point x="371" y="470" type="curve" smooth="yes"/>
      <point x="371" y="394"/>
      <point x="328" y="347"/>
      <point x="252" y="347" type="curve" smooth="yes"/>
    </contour>
  </outline>
</glyph>
<glyph name="won" format="2">
  <advance width="714"/>
  <unicode hex="20A9"/>
  <outline>
    <contour>
      <point x="139" y="0" type="line"/>
      <point x="268" y="0" type="line"/>
      <point x="340" y="437" type="line" smooth="yes"/>
      <point x="345" y="466"/>
      <point x="354" y="534"/>
      <point x="354" y="534" type="curve"/>
      <point x="358" y="534" type="line"/>
      <point x="358" y="534"/>
      <point x="366" y="472"/>
      <point x="372" y="437" type="curve" smooth="yes"/>
      <point x="445" y="0" type="line"/>
      <point x="574" y="0" type="line"/>
      <point x="713" y="686" type="line"/>
      <point x="603" y="686" type="line"/>
      <point x="529" y="264" type="line" smooth="yes"/>
      <point x="523" y="226"/>
      <point x="516" y="158"/>
      <point x="516" y="158" type="curve"/>
      <point x="512" y="158" type="line"/>
      <point x="512" y="158"/>
      <point x="503" y="234"/>
      <point x="499" y="264" type="curve" smooth="yes"/>
      <point x="437" y="686" type="line"/>
      <point x="292" y="686" type="line"/>
      <point x="229" y="264" type="line" smooth="yes"/>
      <point x="225" y="232"/>
      <point x="216" y="158"/>
      <point x="216" y="158" type="curve"/>
      <point x="212" y="158" type="line"/>
      <point x="212" y="158"/>
      <point x="204" y="231"/>
      <point x="199" y="264" type="curve" smooth="yes"/>
      <point x="127" y="686" type="line"/>
      <point x="0" y="686" type="line"/>
    </contour>
    <contour>
      <point x="0" y="293" type="line"/>
      <point x="713" y="293" type="line"/>
      <point x="713" y="389" type="line"/>
      <point x="0" y="389" type="line"/>
    </contour>
  </outline>
</glyph>
<glyph name="dong" format="2">
  <advance width="501"/>
  <unicode hex="20AB"/>
  <outline>
    <contour>
      <point x="210" y="55" type="curve" smooth="yes"/>
      <point x="260" y="55"/>
      <point x="303" y="80"/>
      <point x="329" y="130" type="curve"/>
      <point x="334" y="130" type="line"/>
      <point x="346" y="65" type="line"/>
      <point x="443" y="65" type="line"/>
      <point x="443" y="723" type="line"/>
      <point x="326" y="723" type="line"/>
      <point x="326" y="437" type="line"/>
      <point x="321" y="437" type="line"/>
      <point x="302" y="478"/>
      <point x="257" y="501"/>
      <point x="204" y="501" type="curve" smooth="yes"/>
      <point x="111" y="501"/>
      <point x="41" y="419"/>
      <point x="41" y="279" type="curve" smooth="yes"/>
      <point x="41" y="139"/>
      <point x="106" y="55"/>
    </contour>
    <contour>
      <point x="246" y="152" type="curve" smooth="yes"/>
      <point x="193" y="152"/>
      <point x="164" y="197"/>
      <point x="164" y="278" type="curve" smooth="yes"/>
      <point x="164" y="359"/>
      <point x="193" y="404"/>
      <point x="246" y="404" type="curve" smooth="yes"/>
      <point x="299" y="404"/>
      <point x="328" y="358"/>
      <point x="328" y="277" type="curve" smooth="yes"/>
      <point x="328" y="197"/>
      <point x="299" y="152"/>
    </contour>
    <contour>
      <point x="41" y="-69" type="line"/>
      <point x="443" y="-69" type="line"/>
      <point x="443" y="0" type="line"/>
      <point x="41" y="0" type="line"/>
    </contour>
    <contour>
      <point x="146" y="563" type="line"/>
      <point x="501" y="563" type="line"/>
      <point x="501" y="632" type="line"/>
      <point x="146" y="632" type="line"/>
    </contour>
  </outline>
</glyph>
<glyph name="guarani" format="2">
  <advance width="638"/>
  <unicode hex="20B2"/>
  <outline>
    <contour>
      <point x="293" y="-109" type="line"/>
      <point x="348" y="-109" type="line"/>
      <point x="348" y="783" type="line"/>
      <point x="293" y="783" type="line"/>
    </contour>
    <contour>
      <point x="299" y="-12" type="curve" smooth="yes"/>
      <point x="383" y="-12"/>
      <point x="461" y="33"/>
      <point x="502" y="118" type="curve"/>
      <point x="479" y="128" type="line"/>
      <point x="504" y="0" type="line"/>
      <point x="587" y="0" type="line"/>
      <point x="587" y="373" type="line"/>
      <point x="302" y="373" type="line"/>
      <point x="302" y="273" type="line"/>
      <point x="510" y="273" type="line"/>
      <point x="471" y="311" type="line"/>
      <point x="471" y="273" type="line"/>
      <point x="471" y="157"/>
      <point x="409" y="88"/>
      <point x="322" y="88" type="curve" smooth="yes"/>
      <point x="212" y="88"/>
      <point x="161" y="172"/>
      <point x="161" y="318" type="curve" smooth="yes"/>
      <point x="161" y="368" type="line" smooth="yes"/>
      <point x="161" y="511"/>
      <point x="211" y="598"/>
      <point x="321" y="598" type="curve" smooth="yes"/>
      <point x="400" y="598"/>
      <point x="466" y="546"/>
      <point x="466" y="446" type="curve"/>
      <point x="584" y="446" type="line"/>
      <point x="584" y="610"/>
      <point x="461" y="698"/>
      <point x="325" y="698" type="curve" smooth="yes"/>
      <point x="143" y="698"/>
      <point x="39" y="585"/>
      <point x="39" y="343" type="curve" smooth="yes"/>
      <point x="39" y="99"/>
      <point x="134" y="-12"/>
    </contour>
  </outline>
</glyph>
<glyph name="rupeeIndian" format="2">
  <advance width="580"/>
  <unicode hex="20B9"/>
  <outline>
    <contour>
      <point x="312" y="0" type="line"/>
      <point x="450" y="0" type="line"/>
      <point x="220" y="291" type="line"/>
      <point x="248" y="291" type="line" smooth="yes"/>
      <point x="358" y="291"/>
      <point x="434" y="350"/>
      <point x="453" y="444" type="curve"/>
      <point x="540" y="444" type="line"/>
      <point x="540" y="525" type="line"/>
      <point x="454" y="525" type="line"/>
      <point x="446" y="567"/>
      <point x="422" y="603"/>
      <point x="387" y="630" type="curve"/>
      <point x="360" y="610" type="line"/>
      <point x="540" y="610" type="line"/>
      <point x="540" y="686" type="line"/>
      <point x="70" y="686" type="line"/>
      <point x="70" y="589" type="line"/>
      <point x="244" y="589" type="line" smooth="yes"/>
      <point x="295" y="589"/>
      <point x="324" y="565"/>
      <point x="335" y="525" type="curve"/>
      <point x="70" y="525" type="line"/>
      <point x="70" y="444" type="line"/>
      <point x="332" y="444" type="line"/>
      <point x="320" y="405"/>
      <point x="289" y="382"/>
      <point x="239" y="382" type="curve" smooth="yes"/>
      <point x="70" y="382" type="line"/>
      <point x="70" y="306" type="line"/>
    </contour>
  </outline>
</glyph>
<glyph name="liraTurkish" format="2">
  <advance width="501"/>
  <unicode hex="20BA"/>
  <outline>
    <contour>
      <point x="60" y="0" type="line"/>
      <point x="185" y="0" type="line"/>
      <point x="382" y="0"/>
      <point x="474" y="92"/>
      <point x="474" y="290" type="curve"/>
      <point x="360" y="290" type="line"/>
      <point x="360" y="151"/>
      <point x="316" y="106"/>
      <point x="179" y="106" type="curve"/>
      <point x="179" y="686" type="line"/>
      <point x="60" y="686" type="line"/>
    </contour>
    <contour>
      <point x="0" y="345" type="line"/>
      <point x="360" y="485" type="line"/>
      <point x="360" y="568" type="line"/>
      <point x="0" y="428" type="line"/>
    </contour>
    <contour>
      <point x="0" y="197" type="line"/>
      <point x="360" y="337" type="line"/>
      <point x="360" y="419" type="line"/>
      <point x="0" y="279" type="line"/>
    </contour>
  </outline>
</glyph>
<glyph name="manat" format="2">
  <advance width="600"/>
  <unicode hex="20BC"/>
  <outline>
    <contour>
      <point x="46" y="0" type="line"/>
      <point x="164" y="0" type="line"/>
      <point x="164" y="432" type="line"/>
      <point x="164" y="542"/>
      <point x="207" y="598"/>
      <point x="300" y="598" type="curve"/>
      <point x="393" y="598"/>
      <point x="436" y="542"/>
      <point x="436" y="432" type="curve"/>
      <point x="436" y="0" type="line"/>
      <point x="555" y="0" type="line"/>
      <point x="555" y="422" type="line"/>
      <point x="555" y="603"/>
      <point x="464" y="698"/>
      <point x="300" y="698" type="curve" smooth="yes"/>
      <point x="136" y="698"/>
      <point x="46" y="603"/>
      <point x="46" y="422" type="curve"/>
    </contour>
    <contour>
      <point x="273" y="110" type="line"/>
      <point x="328" y="110" type="line"/>
      <point x="328" y="783" type="line"/>
      <point x="273" y="783" type="line"/>
    </contour>
  </outline>
</glyph>
<glyph name="ruble" format="2">
  <advance width="547"/>
  <unicode hex="20BD"/>
  <outline>
    <contour>
      <point x="0" y="105" type="line"/>
      <point x="60" y="105" type="line"/>
      <point x="60" y="0" type="line"/>
      <point x="178" y="0" type="line"/>
      <point x="178" y="105" type="line"/>
      <point x="348" y="105" type="line"/>
      <point x="348" y="187" type="line"/>
      <point x="178" y="187" type="line"/>
      <point x="178" y="270" type="line"/>
      <point x="305" y="270" type="line" smooth="yes"/>
      <point x="434" y="270"/>
      <point x="520" y="353"/>
      <point x="520" y="480" type="curve" smooth="yes"/>
      <point x="520" y="599"/>
      <point x="447" y="686"/>
      <point x="305" y="686" type="curve" smooth="yes"/>
      <point x="60" y="686" type="line"/>
      <point x="60" y="369" type="line"/>
      <point x="0" y="369" type="line"/>
      <point x="0" y="270" type="line"/>
      <point x="60" y="270" type="line"/>
      <point x="60" y="187" type="line"/>
      <point x="0" y="187" type="line"/>
    </contour>
    <contour>
      <point x="178" y="369" type="line"/>
      <point x="178" y="582" type="line"/>
      <point x="292" y="582" type="line" smooth="yes"/>
      <point x="360" y="582"/>
      <point x="399" y="542"/>
      <point x="399" y="480" type="curve" smooth="yes"/>
      <point x="399" y="411"/>
      <point x="361" y="369"/>
      <point x="292" y="369" type="curve" smooth="yes"/>
    </contour>
  </outline>
</glyph>
<glyph name="published" format="2">
  <advance width="604"/>
  <unicode hex="2117"/>
  <outline>
    <contour>
      <point x="302" y="-12" type="curve" smooth="yes"/>
      <point x="480" y="-12"/>
      <point x="588" y="127"/>
      <point x="588" y="343" type="curve" smooth="yes"/>
      <point x="588" y="559"/>
      <point x="480" y="698"/>
      <point x="302" y="698" type="curve" smooth="yes"/>
      <point x="124" y="698"/>
      <point x="16" y="559"/>
      <point x="16" y="343" type="curve" smooth="yes"/>
      <point x="16" y="127"/>
      <point x="124" y="-12"/>
    </contour>
    <contour>
      <point x="302" y="43" type="curve" smooth="yes"/>
      <point x="159" y="43"/>
      <point x="72" y="160"/>
      <point x="72" y="343" type="curve" smooth="yes"/>
      <point x="72" y="526"/>
      <point x="159" y="643"/>
      <point x="302" y="643" type="curve" smooth="yes"/>
      <point x="445" y="643"/>
      <point x="532" y="526"/>
      <point x="532" y="343" type="curve" smooth="yes"/>
      <point x="532" y="160"/>
      <point x="445" y="43"/>
    </contour>
    <contour>
      <point x="182" y="140" type="line"/>
      <point x="268" y="140" type="line"/>
      <point x="268" y="292" type="line"/>
      <point x="312" y="292" type="line" smooth="yes"/>
      <point x="397" y="292"/>
      <point x="453" y="344"/>
      <point x="453" y="421" type="curve" smooth="yes"/>
      <point x="453" y="497"/>
      <point x="405" y="546"/>
      <point x="340" y="546" type="curve" smooth="yes"/>
      <point x="182" y="546" type="line"/>
    </contour>
    <contour>
      <point x="268" y="362" type="line"/>
      <point x="268" y="468" type="line"/>
      <point x="312" y="468" type="line" smooth="yes"/>
      <point x="348" y="468"/>
      <point x="365" y="452"/>
      <point x="365" y="418" type="curve" smooth="yes"/>
      <point x="365" y="380"/>
      <point x="348" y="362"/>
      <point x="312" y="362" type="curve" smooth="yes"/>
    </contour>
  </outline>
</glyph>
<glyph name="emptyset" format="2">
  <advance width="456"/>
  <unicode hex="2205"/>
  <outline>
    <contour>
      <point x="227" y="102" type="curve" smooth="yes"/>
      <point x="352" y="102"/>
      <point x="435" y="202"/>
      <point x="435" y="351" type="curve" smooth="yes"/>
      <point x="435" y="499"/>
      <point x="351" y="598"/>
      <point x="226" y="598" type="curve" smooth="yes"/>
      <point x="102" y="598"/>
      <point x="20" y="499"/>
      <point x="20" y="351" type="curve" smooth="yes"/>
      <point x="20" y="202"/>
      <point x="103" y="102"/>
    </contour>
    <contour>
      <point x="227" y="181" type="curve" smooth="yes"/>
      <point x="151" y="181"/>
      <point x="101" y="249"/>
      <point x="102" y="351" type="curve" smooth="yes"/>
      <point x="103" y="452"/>
      <point x="153" y="519"/>
      <point x="227" y="519" type="curve" smooth="yes"/>
      <point x="304" y="519"/>
      <point x="355" y="451"/>
      <point x="354" y="350" type="curve" smooth="yes"/>
      <point x="353" y="249"/>
      <point x="302" y="181"/>
    </contour>
    <contour>
      <point x="56" y="99" type="line"/>
      <point x="447" y="562" type="line"/>
      <point x="400" y="603" type="line"/>
      <point x="9" y="140" type="line"/>
    </contour>
  </outline>
</glyph>
<glyph name="lozenge" format="2">
  <advance width="494"/>
  <unicode hex="25CA"/>
  <outline>
    <contour>
      <point x="204" y="0" type="line"/>
      <point x="278" y="0" type="line"/>
      <point x="480" y="342" type="line"/>
      <point x="278" y="686" type="line"/>
      <point x="204" y="686" type="line"/>
      <point x="14" y="342" type="line"/>
    </contour>
    <contour>
      <point x="248" y="145" type="line"/>
      <point x="136" y="349" type="line"/>
      <point x="239" y="540" type="line"/>
      <point x="356" y="335" type="line"/>
    </contour>
  </outline>
</glyph>
<glyph name="leftanglebracket-math" format="2">
  <advance width="273"/>
  <unicode hex="27E8"/>
  <outline>
    <contour>
      <point x="156" y="-157" type="line"/>
      <point x="243" y="-157" type="line"/>
      <point x="145" y="296" type="line"/>
      <point x="243" y="735" type="line"/>
      <point x="156" y="735" type="line"/>
      <point x="20" y="296" type="line"/>
    </contour>
  </outline>
</glyph>
<glyph name="rightanglebracket-math" format="2">
  <advance width="273"/>
  <unicode hex="27E9"/>
  <outline>
    <contour>
      <point x="30" y="-157" type="line"/>
      <point x="117" y="-157" type="line"/>
      <point x="253" y="296" type="line"/>
      <point x="117" y="735" type="line"/>
      <point x="30" y="735" type="line"/>
      <point x="128" y="296" type="line"/>
    </contour>
  </outline>
</glyph>
<glyph name="commaaccent" format="2">
  <unicode hex="F6C3"/>
  <outline>
    <contour>
      <point x="0" y="-263" type="line"/>
      <point x="65" y="-263" type="line"/>
      <point x="111" y="-167" type="line"/>
      <point x="111" y="-67" type="line"/>
      <point x="4" y="-67" type="line"/>
      <point x="4" y="-178" type="line"/>
      <point x="36" y="-178" type="line"/>
    </contour>
  </outline>
</glyph>
<glyph name="Y.loclGUA" format="2">
  <advance width="540"/>
  <anchor x="270" y="0" name="bottom"/>
  <anchor x="270" y="686" name="top"/>
  <anchor x="55" y="686" name="topleft"/>
  <outline>
    <contour>
      <point x="263" y="-12" type="curve" smooth="yes"/>
      <point x="403" y="-12"/>
      <point x="485" y="63"/>
      <point x="485" y="253" type="curve" smooth="yes"/>
      <point x="485" y="686" type="line"/>
      <point x="362" y="686" type="line"/>
      <point x="362" y="478" type="line" smooth="yes"/>
      <point x="362" y="364"/>
      <point x="330" y="304"/>
      <point x="259" y="304" type="curve" smooth="yes"/>
      <point x="206" y="304"/>
      <point x="178" y="342"/>
      <point x="178" y="408" type="curve" smooth="yes"/>
      <point x="178" y="686" type="line"/>
      <point x="55" y="686" type="line"/>
      <point x="55" y="403" type="line" smooth="yes"/>
      <point x="55" y="266"/>
      <point x="126" y="198"/>
      <point x="224" y="198" type="curve" smooth="yes"/>
      <point x="286" y="198"/>
      <point x="327" y="214"/>
      <point x="355" y="274" type="curve"/>
      <point x="362" y="274" type="line"/>
      <point x="362" y="248" type="line" smooth="yes"/>
      <point x="362" y="139"/>
      <point x="334" y="94"/>
      <point x="270" y="94" type="curve" smooth="yes"/>
      <point x="212" y="94"/>
      <point x="173" y="120"/>
      <point x="173" y="168" type="curve"/>
      <point x="55" y="168" type="line"/>
      <point x="55" y="160" type="line" smooth="yes"/>
      <point x="55" y="50"/>
      <point x="133" y="-12"/>
    </contour>
  </outline>
</glyph>
<glyph name="acute.loclPLK" format="2">
  <advance width="177"/>
  <anchor x="49" y="526" name="_top"/>
  <outline>
    <contour>
      <point x="0" y="591" type="line"/>
      <point x="99" y="591" type="line"/>
      <point x="177" y="750" type="line"/>
      <point x="176" y="753" type="line"/>
      <point x="56" y="753" type="line"/>
    </contour>
  </outline>
</glyph>
<glyph name="acutecomb.case" format="2">
  <anchor x="74" y="526" name="_top"/>
  <anchor x="74" y="686" name="top"/>
  <outline>
    <contour>
      <point x="0" y="591" type="line"/>
      <point x="109" y="591" type="line"/>
      <point x="197" y="690" type="line"/>
      <point x="196" y="693" type="line"/>
      <point x="66" y="693" type="line"/>
    </contour>
  </outline>
</glyph>
<glyph name="brevebelowcomb.case" format="2">
  <anchor x="134" y="0" name="_bottom"/>
  <anchor x="134" y="-182" name="bottom"/>
  <outline>
    <contour>
      <point x="133" y="-174" type="curve" smooth="yes"/>
      <point x="216" y="-174"/>
      <point x="267" y="-117"/>
      <point x="267" y="-67" type="curve"/>
      <point x="193" y="-67" type="line"/>
      <point x="191" y="-81"/>
      <point x="167" y="-100"/>
      <point x="133" y="-100" type="curve" smooth="yes"/>
      <point x="100" y="-100"/>
      <point x="77" y="-81"/>
      <point x="74" y="-67" type="curve"/>
      <point x="0" y="-67" type="line"/>
      <point x="0" y="-117"/>
      <point x="51" y="-174"/>
    </contour>
  </outline>
</glyph>
<glyph name="breveinvertedcomb.case" format="2">
  <anchor x="134" y="526" name="_top"/>
  <anchor x="134" y="723" name="top"/>
  <outline>
    <contour>
      <point x="0" y="626" type="curve"/>
      <point x="74" y="626" type="line"/>
      <point x="77" y="640"/>
      <point x="100" y="659"/>
      <point x="133" y="659" type="curve" smooth="yes"/>
      <point x="167" y="659"/>
      <point x="191" y="640"/>
      <point x="193" y="626" type="curve"/>
      <point x="267" y="626" type="line"/>
      <point x="267" y="676"/>
      <point x="216" y="733"/>
      <point x="133" y="733" type="curve" smooth="yes"/>
      <point x="51" y="733"/>
      <point x="0" y="676"/>
    </contour>
  </outline>
</glyph>
<glyph name="circumflexcomb.case" format="2">
  <anchor x="135" y="526" name="_top"/>
  <anchor x="135" y="666" name="top"/>
  <outline>
    <contour>
      <point x="0" y="588" type="line"/>
      <point x="90" y="588" type="line"/>
      <point x="135" y="627" type="line"/>
      <point x="179" y="588" type="line"/>
      <point x="269" y="588" type="line"/>
      <point x="184" y="693" type="line"/>
      <point x="86" y="693" type="line"/>
    </contour>
  </outline>
</glyph>
<glyph name="commaaccentcomb.case" format="2">
  <anchor x="62" y="0" name="_bottom"/>
  <anchor x="62" y="-182" name="bottom"/>
  <outline>
    <contour>
      <point x="17" y="-263" type="line"/>
      <point x="82" y="-263" type="line"/>
      <point x="128" y="-167" type="line"/>
      <point x="128" y="-67" type="line"/>
      <point x="0" y="-67" type="line"/>
      <point x="0" y="-178" type="line"/>
      <point x="49" y="-178" type="line"/>
    </contour>
  </outline>
</glyph>
<glyph name="commaturnedabovecomb.case" format="2">
  <anchor x="56" y="526" name="_top"/>
  <anchor x="56" y="686" name="top"/>
  <outline>
    <contour>
      <point x="0" y="608" type="line"/>
      <point x="107" y="608" type="line"/>
      <point x="107" y="719" type="line"/>
      <point x="75" y="719" type="line"/>
      <point x="111" y="804" type="line"/>
      <point x="46" y="804" type="line"/>
      <point x="0" y="708" type="line"/>
    </contour>
  </outline>
</glyph>
<glyph name="dblgravecomb.case" format="2">
  <anchor x="187" y="526" name="_top"/>
  <anchor x="187" y="686" name="top"/>
  <outline>
    <contour>
      <point x="224" y="591" type="line"/>
      <point x="303" y="591" type="line"/>
      <point x="241" y="693" type="line"/>
      <point x="141" y="693" type="line"/>
      <point x="140" y="690" type="line"/>
    </contour>
    <contour>
      <point x="84" y="591" type="line"/>
      <point x="163" y="591" type="line"/>
      <point x="101" y="693" type="line"/>
      <point x="1" y="693" type="line"/>
      <point x="0" y="690" type="line"/>
    </contour>
  </outline>
</glyph>
<glyph name="dieresisbelowcomb.case" format="2">
  <anchor x="137" y="0" name="_bottom"/>
  <anchor x="137" y="-182" name="bottom"/>
  <outline>
    <contour>
      <point x="159" y="-182" type="line"/>
      <point x="274" y="-182" type="line"/>
      <point x="274" y="-67" type="line"/>
      <point x="159" y="-67" type="line"/>
    </contour>
    <contour>
      <point x="-1" y="-182" type="line"/>
      <point x="114" y="-182" type="line"/>
      <point x="114" y="-67" type="line"/>
      <point x="-1" y="-67" type="line"/>
    </contour>
  </outline>
</glyph>
<glyph name="dieresiscomb.case" format="2">
  <anchor x="138" y="526" name="_top"/>
  <anchor x="138" y="723" name="top"/>
  <outline>
    <contour>
      <point x="175" y="614" type="line"/>
      <point x="275" y="614" type="line"/>
      <point x="275" y="723" type="line"/>
      <point x="175" y="723" type="line"/>
    </contour>
    <contour>
      <point x="0" y="614" type="line"/>
      <point x="100" y="614" type="line"/>
      <point x="100" y="723" type="line"/>
      <point x="0" y="723" type="line"/>
    </contour>
  </outline>
</glyph>
<glyph name="dotaccentcomb.case" format="2">
  <anchor x="64" y="526" name="_top"/>
  <anchor x="64" y="723" name="top"/>
  <outline>
    <contour>
      <point x="0" y="608" type="line"/>
      <point x="128" y="608" type="line"/>
      <point x="128" y="723" type="line"/>
      <point x="0" y="723" type="line"/>
    </contour>
  </outline>
</glyph>
<glyph name="dotbelowcomb.case" format="2">
  <anchor x="64" y="0" name="_bottom"/>
  <anchor x="64" y="-182" name="bottom"/>
  <outline>
    <contour>
      <point x="0" y="-182" type="line"/>
      <point x="127" y="-182" type="line"/>
      <point x="127" y="-67" type="line"/>
      <point x="0" y="-67" type="line"/>
    </contour>
  </outline>
</glyph>
<glyph name="eight.osf" format="2">
  <advance width="456"/>
  <outline>
    <contour>
      <point x="228" y="-10" type="curve" smooth="yes"/>
      <point x="355" y="-10"/>
      <point x="408" y="68"/>
      <point x="408" y="164" type="curve" smooth="yes"/>
      <point x="408" y="227"/>
      <point x="385" y="279"/>
      <point x="328" y="306" type="curve"/>
      <point x="373" y="335"/>
      <point x="395" y="385"/>
      <point x="395" y="441" type="curve" smooth="yes"/>
      <point x="395" y="532"/>
      <point x="339" y="607"/>
      <point x="228" y="607" type="curve" smooth="yes"/>
      <point x="117" y="607"/>
      <point x="61" y="532"/>
      <point x="61" y="441" type="curve" smooth="yes"/>
      <point x="61" y="385"/>
      <point x="82" y="335"/>
      <point x="127" y="306" type="curve"/>
      <point x="73" y="280"/>
      <point x="48" y="230"/>
      <point x="48" y="164" type="curve" smooth="yes"/>
      <point x="48" y="68"/>
      <point x="101" y="-10"/>
    </contour>
    <contour>
      <point x="228" y="84" type="curve" smooth="yes"/>
      <point x="189" y="84"/>
      <point x="167" y="113"/>
      <point x="167" y="170" type="curve" smooth="yes"/>
      <point x="167" y="228"/>
      <point x="189" y="258"/>
      <point x="228" y="258" type="curve" smooth="yes"/>
      <point x="267" y="258"/>
      <point x="289" y="228"/>
      <point x="289" y="170" type="curve" smooth="yes"/>
      <point x="289" y="113"/>
      <point x="267" y="84"/>
    </contour>
    <contour>
      <point x="228" y="352" type="curve" smooth="yes"/>
      <point x="195" y="352"/>
      <point x="178" y="379"/>
      <point x="178" y="432" type="curve" smooth="yes"/>
      <point x="178" y="486"/>
      <point x="195" y="513"/>
      <point x="228" y="513" type="curve" smooth="yes"/>
      <point x="261" y="513"/>
      <point x="279" y="486"/>
      <point x="279" y="432" type="curve" smooth="yes"/>
      <point x="279" y="378"/>
      <point x="261" y="352"/>
    </contour>
  </outline>
</glyph>
<glyph name="five.osf" format="2">
  <advance width="456"/>
  <outline>
    <contour>
      <point x="229" y="-10" type="curve" smooth="yes"/>
      <point x="341" y="-10"/>
      <point x="411" y="64"/>
      <point x="411" y="195" type="curve" smooth="yes"/>
      <point x="411" y="326"/>
      <point x="344" y="388"/>
      <point x="260" y="388" type="curve" smooth="yes"/>
      <point x="219" y="388"/>
      <point x="194" y="376"/>
      <point x="176" y="364" type="curve"/>
      <point x="185" y="492" type="line"/>
      <point x="385" y="492" type="line"/>
      <point x="385" y="597" type="line"/>
      <point x="83" y="597" type="line"/>
      <point x="62" y="266" type="line"/>
      <point x="174" y="251" type="line"/>
      <point x="186" y="276"/>
      <point x="203" y="296"/>
      <point x="235" y="296" type="curve" smooth="yes"/>
      <point x="268" y="296"/>
      <point x="293" y="259"/>
      <point x="293" y="195" type="curve" smooth="yes"/>
      <point x="293" y="122"/>
      <point x="267" y="84"/>
      <point x="229" y="84" type="curve" smooth="yes"/>
      <point x="187" y="84"/>
      <point x="165" y="124"/>
      <point x="165" y="185" type="curve"/>
      <point x="45" y="185" type="line"/>
      <point x="45" y="64"/>
      <point x="118" y="-10"/>
    </contour>
  </outline>
</glyph>
<glyph name="four.osf" format="2">
  <advance width="456"/>
  <outline>
    <contour>
      <point x="247" y="0" type="line"/>
      <point x="362" y="0" type="line"/>
      <point x="362" y="131" type="line"/>
      <point x="425" y="131" type="line"/>
      <point x="425" y="227" type="line"/>
      <point x="362" y="227" type="line"/>
      <point x="362" y="519" type="line"/>
      <point x="312" y="519" type="line"/>
      <point x="301" y="476"/>
      <point x="274" y="395"/>
      <point x="247" y="343" type="curve"/>
      <point x="247" y="227" type="line"/>
      <point x="127" y="227" type="line"/>
      <point x="161" y="274"/>
      <point x="263" y="454"/>
      <point x="298" y="607" type="curve"/>
      <point x="183" y="607" type="line"/>
      <point x="147" y="476"/>
      <point x="92" y="328"/>
      <point x="28" y="221" type="curve"/>
      <point x="28" y="131" type="line"/>
      <point x="247" y="131" type="line"/>
    </contour>
  </outline>
</glyph>
<glyph name="gravecomb.case" format="2">
  <anchor x="138" y="526" name="_top"/>
  <anchor x="138" y="686" name="top"/>
  <outline>
    <contour>
      <point x="108" y="591" type="line"/>
      <point x="207" y="591" type="line"/>
      <point x="121" y="693" type="line"/>
      <point x="1" y="693" type="line"/>
      <point x="0" y="690" type="line"/>
    </contour>
  </outline>
</glyph>
<glyph name="horncomb.case" format="2">
  <anchor x="0" y="526" name="_topright"/>
  <anchor x="0" y="660" name="topright"/>
  <outline>
    <contour>
      <point x="0" y="456" type="line"/>
      <point x="80" y="456" type="line" smooth="yes"/>
      <point x="159" y="456"/>
      <point x="210" y="504"/>
      <point x="210" y="579" type="curve" smooth="yes"/>
      <point x="210" y="660" type="line"/>
      <point x="110" y="660" type="line"/>
      <point x="110" y="579" type="line" smooth="yes"/>
      <point x="110" y="543"/>
      <point x="97" y="526"/>
      <point x="60" y="526" type="curve" smooth="yes"/>
      <point x="0" y="526" type="line"/>
    </contour>
  </outline>
</glyph>
<glyph name="hungarumlautcomb.case" format="2">
  <anchor x="113" y="526" name="_top"/>
  <anchor x="113" y="686" name="top"/>
  <outline>
    <contour>
      <point x="140" y="591" type="line"/>
      <point x="219" y="591" type="line"/>
      <point x="303" y="690" type="line"/>
      <point x="302" y="693" type="line"/>
      <point x="202" y="693" type="line"/>
    </contour>
    <contour>
      <point x="0" y="591" type="line"/>
      <point x="79" y="591" type="line"/>
      <point x="163" y="690" type="line"/>
      <point x="162" y="693" type="line"/>
      <point x="62" y="693" type="line"/>
    </contour>
  </outline>
</glyph>
<glyph name="macronbelowcomb.case" format="2">
  <anchor x="128" y="0" name="_bottom"/>
  <anchor x="128" y="-182" name="bottom"/>
  <outline>
    <contour>
      <point x="0" y="-154" type="line"/>
      <point x="255" y="-154" type="line"/>
      <point x="255" y="-67" type="line"/>
      <point x="0" y="-67" type="line"/>
    </contour>
  </outline>
</glyph>
<glyph name="nine.osf" format="2">
  <advance width="456"/>
  <outline>
    <contour>
      <point x="228" y="-10" type="curve" smooth="yes"/>
      <point x="341" y="-10"/>
      <point x="408" y="68"/>
      <point x="408" y="316" type="curve" smooth="yes"/>
      <point x="408" y="536"/>
      <point x="337" y="607"/>
      <point x="220" y="607" type="curve" smooth="yes"/>
      <point x="121" y="607"/>
      <point x="48" y="533"/>
      <point x="48" y="414" type="curve" smooth="yes"/>
      <point x="48" y="302"/>
      <point x="98" y="222"/>
      <point x="196" y="222" type="curve" smooth="yes"/>
      <point x="234" y="222"/>
      <point x="270" y="238"/>
      <point x="289" y="266" type="curve"/>
      <point x="287" y="156"/>
      <point x="284" y="85"/>
      <point x="232" y="85" type="curve" smooth="yes"/>
      <point x="193" y="85"/>
      <point x="182" y="122"/>
      <point x="182" y="184" type="curve"/>
      <point x="64" y="184" type="line"/>
      <point x="64" y="73"/>
      <point x="113" y="-10"/>
    </contour>
    <contour>
      <point x="224" y="314" type="curve" smooth="yes"/>
      <point x="185" y="314"/>
      <point x="167" y="354"/>
      <point x="167" y="414" type="curve" smooth="yes"/>
      <point x="167" y="470"/>
      <point x="185" y="512"/>
      <point x="224" y="512" type="curve" smooth="yes"/>
      <point x="264" y="512"/>
      <point x="283" y="470"/>
      <point x="283" y="414" type="curve" smooth="yes"/>
      <point x="283" y="354"/>
      <point x="264" y="314"/>
    </contour>
  </outline>
</glyph>
<glyph name="ogonekcomb.case" format="2">
  <anchor x="146" y="0" name="_ogonek"/>
  <outline>
    <contour>
      <point x="100" y="-188" type="curve" smooth="yes"/>
      <point x="122" y="-188"/>
      <point x="143" y="-184"/>
      <point x="166" y="-177" type="curve"/>
      <point x="166" y="-121" type="line"/>
      <point x="144" y="-121" type="line" smooth="yes"/>
      <point x="104" y="-121"/>
      <point x="87" y="-105"/>
      <point x="87" y="-83" type="curve" smooth="yes"/>
      <point x="87" y="-57"/>
      <point x="110" y="-24"/>
      <point x="146" y="0" type="curve"/>
      <point x="144" y="4" type="line"/>
      <point x="73" y="4" type="line"/>
      <point x="24" y="-26"/>
      <point x="0" y="-69"/>
      <point x="0" y="-106" type="curve" smooth="yes"/>
      <point x="0" y="-151"/>
      <point x="34" y="-188"/>
    </contour>
  </outline>
</glyph>
<glyph name="one.osf" format="2">
  <advance width="456"/>
  <outline>
    <contour>
      <point x="54" y="0" type="line"/>
      <point x="431" y="0" type="line"/>
      <point x="431" y="96" type="line"/>
      <point x="306" y="96" type="line"/>
      <point x="306" y="597" type="line"/>
      <point x="248" y="597" type="line"/>
      <point x="189" y="561"/>
      <point x="103" y="534"/>
      <point x="53" y="529" type="curve"/>
      <point x="53" y="451" type="line"/>
      <point x="191" y="451" type="line"/>
      <point x="191" y="96" type="line"/>
      <point x="54" y="96" type="line"/>
    </contour>
  </outline>
</glyph>
<glyph name="periodcentered.loclCAT" format="2">
  <advance width="273"/>
  <anchor x="137" y="393" name="_center"/>
  <outline>
    <contour>
      <point x="73" y="331" type="line"/>
      <point x="201" y="331" type="line"/>
      <point x="201" y="456" type="line"/>
      <point x="73" y="456" type="line"/>
    </contour>
  </outline>
</glyph>
<glyph name="ringcomb.case" format="2">
  <anchor x="96" y="526" name="_top"/>
  <anchor x="96" y="753" name="top"/>
  <outline>
    <contour>
      <point x="96" y="561" type="curve" smooth="yes"/>
      <point x="149" y="561"/>
      <point x="192" y="604"/>
      <point x="192" y="657" type="curve" smooth="yes"/>
      <point x="192" y="709"/>
      <point x="150" y="753"/>
      <point x="96" y="753" type="curve" smooth="yes"/>
      <point x="43" y="753"/>
      <point x="0" y="710"/>
      <point x="0" y="657" type="curve" smooth="yes"/>
      <point x="0" y="603"/>
      <point x="44" y="561"/>
    </contour>
    <contour>
      <point x="96" y="615" type="curve" smooth="yes"/>
      <point x="72" y="615"/>
      <point x="54" y="633"/>
      <point x="54" y="657" type="curve" smooth="yes"/>
      <point x="54" y="681"/>
      <point x="72" y="699"/>
      <point x="96" y="699" type="curve" smooth="yes"/>
      <point x="119" y="699"/>
      <point x="138" y="681"/>
      <point x="138" y="657" type="curve" smooth="yes"/>
      <point x="138" y="633"/>
      <point x="119" y="615"/>
    </contour>
  </outline>
</glyph>
<glyph name="seven.osf" format="2">
  <advance width="456"/>
  <outline>
    <contour>
      <point x="111" y="0" type="curve"/>
      <point x="238" y="0" type="line"/>
      <point x="237" y="21"/>
      <point x="237" y="28"/>
      <point x="237" y="44" type="curve" smooth="yes"/>
      <point x="237" y="222"/>
      <point x="336" y="402"/>
      <point x="417" y="519" type="curve"/>
      <point x="417" y="597" type="line"/>
      <point x="44" y="597" type="line"/>
      <point x="44" y="492" type="line"/>
      <point x="295" y="492" type="line"/>
      <point x="197" y="372"/>
      <point x="111" y="185"/>
    </contour>
  </outline>
</glyph>
<glyph name="six.osf" format="2">
  <advance width="456"/>
  <outline>
    <contour>
      <point x="236" y="-10" type="curve" smooth="yes"/>
      <point x="335" y="-10"/>
      <point x="408" y="64"/>
      <point x="408" y="183" type="curve" smooth="yes"/>
      <point x="408" y="293"/>
      <point x="359" y="375"/>
      <point x="260" y="375" type="curve" smooth="yes"/>
      <point x="221" y="375"/>
      <point x="187" y="359"/>
      <point x="167" y="331" type="curve"/>
      <point x="169" y="441"/>
      <point x="172" y="512"/>
      <point x="224" y="512" type="curve" smooth="yes"/>
      <point x="263" y="512"/>
      <point x="274" y="474"/>
      <point x="274" y="413" type="curve"/>
      <point x="392" y="413" type="line"/>
      <point x="392" y="524"/>
      <point x="343" y="607"/>
      <point x="227" y="607" type="curve" smooth="yes"/>
      <point x="115" y="607"/>
      <point x="48" y="529"/>
      <point x="48" y="281" type="curve" smooth="yes"/>
      <point x="48" y="60"/>
      <point x="119" y="-10"/>
    </contour>
    <contour>
      <point x="232" y="85" type="curve" smooth="yes"/>
      <point x="193" y="85"/>
      <point x="173" y="126"/>
      <point x="173" y="183" type="curve" smooth="yes"/>
      <point x="173" y="244"/>
      <point x="193" y="282"/>
      <point x="232" y="282" type="curve" smooth="yes"/>
      <point x="271" y="282"/>
      <point x="289" y="243"/>
      <point x="289" y="183" type="curve" smooth="yes"/>
      <point x="289" y="127"/>
      <point x="271" y="85"/>
    </contour>
  </outline>
</glyph>
<glyph name="three.osf" format="2">
  <advance width="456"/>
  <outline>
    <contour>
      <point x="227" y="-10" type="curve" smooth="yes"/>
      <point x="332" y="-10"/>
      <point x="407" y="54"/>
      <point x="407" y="160" type="curve" smooth="yes"/>
      <point x="407" y="239"/>
      <point x="368" y="287"/>
      <point x="316" y="306" type="curve"/>
      <point x="316" y="310" type="line"/>
      <point x="362" y="335"/>
      <point x="396" y="374"/>
      <point x="396" y="444" type="curve" smooth="yes"/>
      <point x="396" y="550"/>
      <point x="326" y="607"/>
      <point x="224" y="607" type="curve" smooth="yes"/>
      <point x="124" y="607"/>
      <point x="53" y="543"/>
      <point x="53" y="444" type="curve" smooth="yes"/>
      <point x="53" y="417" type="line"/>
      <point x="173" y="417" type="line"/>
      <point x="173" y="436" type="line" smooth="yes"/>
      <point x="173" y="486"/>
      <point x="191" y="512"/>
      <point x="225" y="512" type="curve" smooth="yes"/>
      <point x="258" y="512"/>
      <point x="276" y="488"/>
      <point x="276" y="439" type="curve" smooth="yes"/>
      <point x="276" y="381"/>
      <point x="252" y="351"/>
      <point x="220" y="351" type="curve" smooth="yes"/>
      <point x="188" y="351" type="line"/>
      <point x="188" y="255" type="line"/>
      <point x="218" y="255" type="line" smooth="yes"/>
      <point x="254" y="255"/>
      <point x="287" y="237"/>
      <point x="287" y="165" type="curve" smooth="yes"/>
      <point x="287" y="111"/>
      <point x="262" y="85"/>
      <point x="225" y="85" type="curve" smooth="yes"/>
      <point x="184" y="85"/>
      <point x="162" y="115"/>
      <point x="162" y="166" type="curve" smooth="yes"/>
      <point x="162" y="187" type="line"/>
      <point x="42" y="187" type="line"/>
      <point x="42" y="169" type="line" smooth="yes"/>
      <point x="42" y="60"/>
      <point x="108" y="-10"/>
    </contour>
  </outline>
</glyph>
<glyph name="tildecomb.case" format="2">
  <anchor x="152" y="526" name="_top"/>
  <anchor x="152" y="686" name="top"/>
  <outline>
    <contour>
      <point x="0" y="587" type="curve"/>
      <point x="59" y="587" type="line"/>
      <point x="63" y="611"/>
      <point x="76" y="620"/>
      <point x="95" y="620" type="curve" smooth="yes"/>
      <point x="136" y="620"/>
      <point x="171" y="587"/>
      <point x="215" y="587" type="curve" smooth="yes"/>
      <point x="279" y="587"/>
      <point x="304" y="647"/>
      <point x="304" y="697" type="curve"/>
      <point x="245" y="697" type="line"/>
      <point x="241" y="672"/>
      <point x="228" y="664"/>
      <point x="209" y="664" type="curve" smooth="yes"/>
      <point x="168" y="664"/>
      <point x="133" y="697"/>
      <point x="89" y="697" type="curve" smooth="yes"/>
      <point x="25" y="697"/>
      <point x="0" y="637"/>
    </contour>
  </outline>
</glyph>
<glyph name="two.osf" format="2">
  <advance width="456"/>
  <outline>
    <contour>
      <point x="50" y="0" type="line"/>
      <point x="407" y="0" type="line"/>
      <point x="407" y="105" type="line"/>
      <point x="194" y="105" type="line"/>
      <point x="198" y="113"/>
      <point x="208" y="126"/>
      <point x="214" y="133" type="curve" smooth="yes"/>
      <point x="265" y="192"/>
      <point x="405" y="315"/>
      <point x="405" y="452" type="curve" smooth="yes"/>
      <point x="405" y="562"/>
      <point x="330" y="607"/>
      <point x="238" y="607" type="curve" smooth="yes"/>
      <point x="141" y="607"/>
      <point x="55" y="554"/>
      <point x="55" y="426" type="curve" smooth="yes"/>
      <point x="55" y="406"/>
      <point x="58" y="392"/>
      <point x="58" y="392" type="curve"/>
      <point x="176" y="392" type="line"/>
      <point x="176" y="427" type="line" smooth="yes"/>
      <point x="176" y="472"/>
      <point x="192" y="510"/>
      <point x="233" y="510" type="curve" smooth="yes"/>
      <point x="273" y="510"/>
      <point x="284" y="476"/>
      <point x="284" y="453" type="curve" smooth="yes"/>
      <point x="284" y="349"/>
      <point x="186" y="279"/>
      <point x="122" y="202" type="curve" smooth="yes"/>
      <point x="83" y="155"/>
      <point x="50" y="95"/>
      <point x="50" y="24" type="curve" smooth="yes"/>
    </contour>
  </outline>
</glyph>
<glyph name="y.loclGUA" format="2">
  <advance width="501"/>
  <anchor x="251" y="0" name="bottom"/>
  <anchor x="251" y="526" name="top"/>
  <outline>
    <contour>
      <point x="246" y="-182" type="curve" smooth="yes"/>
      <point x="370" y="-182"/>
      <point x="446" y="-93"/>
      <point x="446" y="83" type="curve" smooth="yes"/>
      <point x="446" y="526" type="line"/>
      <point x="326" y="526" type="line"/>
      <point x="326" y="227" type="line" smooth="yes"/>
      <point x="326" y="168"/>
      <point x="291" y="124"/>
      <point x="244" y="124" type="curve" smooth="yes"/>
      <point x="199" y="124"/>
      <point x="175" y="149"/>
      <point x="175" y="217" type="curve" smooth="yes"/>
      <point x="175" y="526" type="line"/>
      <point x="55" y="526" type="line"/>
      <point x="55" y="184" type="line" smooth="yes"/>
      <point x="55" y="60"/>
      <point x="114" y="15"/>
      <point x="195" y="15" type="curve" smooth="yes"/>
      <point x="258" y="15"/>
      <point x="301" y="51"/>
      <point x="328" y="92" type="curve"/>
      <point x="334" y="92" type="line"/>
      <point x="334" y="36" type="line" smooth="yes"/>
      <point x="334" y="-39"/>
      <point x="301" y="-84"/>
      <point x="246" y="-84" type="curve" smooth="yes"/>
      <point x="202" y="-84"/>
      <point x="169" y="-60"/>
      <point x="169" y="-25" type="curve"/>
      <point x="55" y="-25" type="line"/>
      <point x="55" y="-35" type="line" smooth="yes"/>
      <point x="55" y="-126"/>
      <point x="127" y="-182"/>
    </contour>
  </outline>
</glyph>
<glyph name="zero.osf" format="2">
  <advance width="456"/>
  <outline>
    <contour>
      <point x="228" y="-10" type="curve" smooth="yes"/>
      <point x="340" y="-10"/>
      <point x="408" y="56"/>
      <point x="408" y="298" type="curve" smooth="yes"/>
      <point x="408" y="540"/>
      <point x="340" y="607"/>
      <point x="228" y="607" type="curve" smooth="yes"/>
      <point x="115" y="607"/>
      <point x="48" y="540"/>
      <point x="48" y="298" type="curve" smooth="yes"/>
      <point x="48" y="57"/>
      <point x="115" y="-10"/>
    </contour>
    <contour>
      <point x="228" y="85" type="curve" smooth="yes"/>
      <point x="171" y="85"/>
      <point x="168" y="158"/>
      <point x="168" y="268" type="curve" smooth="yes"/>
      <point x="168" y="329" type="line" smooth="yes"/>
      <point x="168" y="439"/>
      <point x="171" y="512"/>
      <point x="228" y="512" type="curve" smooth="yes"/>
      <point x="285" y="512"/>
      <point x="288" y="439"/>
      <point x="288" y="329" type="curve" smooth="yes"/>
      <point x="288" y="268" type="line" smooth="yes"/>
      <point x="288" y="136"/>
      <point x="279" y="85"/>
    </contour>
  </outline>
</glyph>
<glyph name="zero.zero" format="2">
  <advance width="456"/>
  <outline>
    <contour>
      <point x="123" y="66" type="line"/>
      <point x="179" y="66" type="line"/>
      <point x="334" y="642" type="line"/>
      <point x="278" y="642" type="line"/>
    </contour>
    <component base="zero"/>
  </outline>
</glyph>
